<?xml version="1.0" encoding="UTF-8"?>
<svg version="1.1" xmlns="http://www.w3.org/2000/svg" width="512" height="512">
<path d="M0 0 C3.1445912 0.99650067 6.07830698 2.35216062 9.0625 3.75 C17.25414582 7.39019858 25.20789974 10.11863956 34 12 C34.73814941 12.17007568 35.47629883 12.34015137 36.23681641 12.51538086 C42.06521637 13.73804024 47.77697767 14.22557302 53.7109375 14.45703125 C54.88248383 14.50361877 54.88248383 14.50361877 56.07769775 14.55114746 C59.32330351 14.67444937 62.56863914 14.79080021 65.81542969 14.87817383 C81.05783636 15.31213772 93.73977588 17.7001272 105 29 C114.85925671 40.41398566 117.18054317 52.09857686 116.22314453 66.78369141 C114.91634422 79.76304945 107.45833274 88.10302007 98.11328125 96.46875 C95.97718659 98.01653023 94.53348984 98.45164564 92 99 C92.02094727 99.63389648 92.04189453 100.26779297 92.06347656 100.92089844 C92.54602912 117.73693884 92.13444621 130.52145985 81 144 C80.2884375 144.6703125 79.576875 145.340625 78.84375 146.03125 C76.63930293 148.06544824 76.63930293 148.06544824 76 152 C81.28 152 86.56 152 92 152 C92.33 150.02 92.66 148.04 93 146 C94.75341797 144.53742981 94.75341797 144.53742981 97.1171875 143.51098633 C98.02694336 143.10627106 98.93669922 142.70155579 99.87402344 142.28457642 C100.9055957 141.8606662 101.93716797 141.43675598 103 141 C104.12180664 140.52718597 105.24361328 140.05437195 106.39941406 139.56723022 C110.29511587 137.952474 114.2067896 136.38325646 118.125 134.82421875 C119.56334323 134.24871539 121.00157369 133.67293011 122.43969727 133.09687805 C125.43055045 131.89996919 128.42257696 130.70605893 131.41552734 129.5144043 C135.25552342 127.9852749 139.09267077 126.44913825 142.92901611 124.91087627 C145.88757952 123.7253426 148.84747302 122.54316106 151.80780029 121.36203957 C153.22441221 120.79643184 154.64063374 120.22984538 156.05645752 119.66226768 C158.02459434 118.87392745 159.9944454 118.09004038 161.96484375 117.30737305 C163.0849585 116.86056686 164.20507324 116.41376068 165.35913086 115.95341492 C168 115 168 115 170 115 C169.70867187 113.9790625 169.41734375 112.958125 169.1171875 111.90625 C166.53362239 102.77893387 164.06172526 93.62144145 161.6875 84.4375 C161.28797119 82.94089844 161.28797119 82.94089844 160.88037109 81.4140625 C158.08328619 70.43876416 158.39053955 62.81786975 163.6875 52.8125 C168.35495705 47.13586304 174.68340157 43.78007851 182 43 C189.68774957 42.67124755 196.21811052 44.85225323 202 50 C207.82916056 56.95701394 209.93820966 64.56607522 212.05078125 73.23828125 C212.39728199 74.60946315 212.74506042 75.98032273 213.09403992 77.35087585 C213.8181534 80.2100754 214.53047805 83.07185742 215.23364258 85.9362793 C216.12734695 89.57508518 217.04466486 93.20739902 217.97031879 96.83819294 C218.68917965 99.66503985 219.39806388 102.49431441 220.10384178 105.32445335 C220.43835938 106.66322636 220.77518175 108.001426 221.11452675 109.33898354 C224.94680577 124.51427132 227.08317585 136.68688722 218.92578125 150.54296875 C214.02683031 156.79335443 207.82777203 160.44852471 200.79174805 163.90380859 C199.89660995 164.353349 199.00147186 164.8028894 198.07920837 165.26605225 C195.14479953 166.73658987 192.2035072 168.19272655 189.26171875 169.6484375 C187.2134728 170.67043395 185.16561149 171.69320163 183.11811829 172.71670532 C178.84015986 174.85261 174.55898896 176.98187891 170.27514648 179.10595703 C164.77440948 181.83359859 159.27992257 184.57355069 153.78750896 187.31790733 C149.5660163 189.42644463 145.34236681 191.53062823 141.11792946 193.63325882 C139.0900284 194.64276095 137.0625604 195.65313351 135.03552818 196.66437912 C132.21280819 198.07123893 129.3874883 199.47272385 126.5612793 200.87255859 C125.71919922 201.2932663 124.87711914 201.713974 124.00952148 202.14743042 C122.85941841 202.71500061 122.85941841 202.71500061 121.68608093 203.29403687 C121.01857661 203.62546377 120.35107229 203.95689068 119.66334057 204.29836082 C118 205 118 205 116 205 C115.9575415 205.86713623 115.91508301 206.73427246 115.87133789 207.62768555 C115.40551738 216.05715191 114.69333036 224.43605465 113.80859375 232.83203125 C113.69859039 233.88244598 113.58858704 234.93286072 113.47525024 236.0151062 C113.01696244 240.37185942 112.55558474 244.7282085 112.08129883 249.08325195 C109.73954292 270.68736824 109.81119065 290.89836143 112 312.5 C115.09750599 343.52703144 115.09750599 343.52703144 111.625 348.1875 C109 350 109 350 107 350 C107.33 353.3 107.66 356.6 108 360 C109.11802002 359.97292969 110.23604004 359.94585937 111.38793945 359.91796875 C116.27036023 359.92118312 120.97396293 360.57855291 125.79296875 361.3125 C126.70202469 361.44567627 127.61108063 361.57885254 128.54768372 361.71606445 C131.42844987 362.13864758 134.3080279 362.5686943 137.1875 363 C140.07778269 363.43054448 142.9682833 363.85937506 145.85945129 364.28393555 C147.65189453 364.54735936 149.44382681 364.8142906 151.2351532 365.08520508 C158.36000915 366.56835725 158.36000915 366.56835725 164.98754883 364.71484375 C165.63747803 364.12832031 166.28740723 363.54179687 166.95703125 362.9375 C178.0988449 353.74950843 186.88416543 350.62593868 201.0625 350.875 C201.77403229 350.88273437 202.48556458 350.89046875 203.21865845 350.8984375 C214.69089628 351.11036206 214.69089628 351.11036206 218.15879822 353.46707153 C220.90949064 357.25117993 220.55976727 360.63347437 220.51757812 365.203125 C220.52809204 366.59887756 220.52809204 366.59887756 220.53881836 368.02282715 C220.55642461 371.09885493 220.54476606 374.17396285 220.53125 377.25 C220.53394415 379.38704607 220.53782593 381.52409094 220.54284668 383.66113281 C220.5487453 388.14009267 220.54016683 392.61873347 220.52148438 397.09765625 C220.49869487 402.84142452 220.51181597 408.5844452 220.53577423 414.32818604 C220.55022221 418.74110557 220.54563076 423.1538476 220.53526306 427.56677246 C220.53259302 429.68469328 220.53587524 431.80263017 220.54518127 433.92053223 C220.55533018 436.87974795 220.5398686 439.83774979 220.51757812 442.796875 C220.52972351 444.11238342 220.52972351 444.11238342 220.54211426 445.45446777 C220.45948079 451.37013837 220.45948079 451.37013837 218.14562988 454.54199219 C213.66846923 457.584332 208.16079382 456.56692752 203 456 C192.19121707 453.60591833 183.97841602 447.30129911 177.5078125 438.453125 C173.96597066 432.6907502 171.89895005 427.09164403 171.96069336 420.31445312 C171.9692057 419.10166687 171.9692057 419.10166687 171.97789001 417.86437988 C171.98518631 417.24913452 171.9924826 416.63388916 172 416 C170.93670471 416.00888245 169.87340942 416.01776489 168.77789307 416.0269165 C158.71584864 416.10830157 148.65387173 416.16810833 138.59157181 416.20724869 C133.41946859 416.22804823 128.2476329 416.25622521 123.07568359 416.30175781 C118.0765498 416.34548932 113.07767196 416.36919439 108.07836151 416.37950897 C106.1791354 416.38685162 104.27992195 416.40118903 102.38080597 416.42292023 C84.95346493 416.6142535 72.26350671 413.90579943 59.1875 401.5625 C53.00106008 395.47148075 49.7018195 387.41690494 46.57421875 379.48046875 C46.18176468 378.50008133 45.78931061 377.51969391 45.38496399 376.50959778 C44.56370187 374.45295314 43.7462233 372.39479396 42.93237305 370.33520508 C41.68288214 367.17582359 40.41950926 364.02225459 39.15429688 360.86914062 C38.35594799 358.8649109 37.55839343 356.86036455 36.76171875 354.85546875 C36.38367599 353.91172897 36.00563324 352.9679892 35.61613464 351.99565125 C35.27189957 351.12076553 34.92766449 350.24587982 34.57299805 349.34448242 C34.268311 348.57585373 33.96362396 347.80722504 33.64970398 347.01530457 C33 345 33 345 33 342 C21.68608766 348.85314073 11.08122858 356.73803916 0.46875 364.6171875 C-0.5109375 365.34164063 -1.490625 366.06609375 -2.5 366.8125 C-3.3353125 367.43769531 -4.170625 368.06289063 -5.03125 368.70703125 C-7 370 -7 370 -9 370 C-7.31414827 374.02219303 -7.31414827 374.02219303 -5.62760925 378.0440979 C-4.15314234 381.55962889 -2.6807341 385.07599779 -1.2121582 388.59399414 C1.36128891 394.75274643 3.93793041 400.90600566 6.64453125 407.0078125 C7.01771484 407.85819092 7.39089844 408.70856934 7.77539062 409.5847168 C8.44304505 411.09935562 9.12189366 412.60913452 9.81445312 414.11254883 C12.25077443 419.68023607 12.96037837 424.63867572 11.25 430.625 C10.78334505 433.2183545 10.78334505 433.2183545 12.375 436.25 C15.24130533 439.25279606 15.62888213 439.3567047 19.5 439.625 C20.2528125 439.61726563 21.005625 439.60953125 21.78125 439.6015625 C24.9982268 440.17925904 26.00147773 441.43849194 28 444 C28.51757812 447.328125 28.51757812 447.328125 28.53125 451.25 C28.5350769 451.94512695 28.53890381 452.64025391 28.54284668 453.35644531 C28.5455618 454.82228041 28.53822835 456.28816428 28.52148438 457.75390625 C28.50006419 459.99328975 28.52129443 462.22946587 28.546875 464.46875 C28.54423165 465.89584039 28.5391065 467.32292879 28.53125 468.75 C28.52673828 470.04421875 28.52222656 471.3384375 28.51757812 472.671875 C28 476 28 476 26.54284668 478.17565918 C22.74746893 480.89861634 19.36185862 480.55972418 14.796875 480.51757812 C13.86637329 480.5245874 12.93587158 480.53159668 11.97717285 480.53881836 C8.90114507 480.55642461 5.82603715 480.54476606 2.75 480.53125 C0.61295393 480.53394415 -1.52409094 480.53782593 -3.66113281 480.54284668 C-8.14009267 480.5487453 -12.61873347 480.54016683 -17.09765625 480.52148438 C-22.84142452 480.49869487 -28.5844452 480.51181597 -34.32818604 480.53577423 C-38.74110557 480.55022221 -43.1538476 480.54563076 -47.56677246 480.53526306 C-49.68469328 480.53259302 -51.80263017 480.53587524 -53.92053223 480.54518127 C-56.87974795 480.55533018 -59.83774979 480.5398686 -62.796875 480.51757812 C-63.67388062 480.52567505 -64.55088623 480.53377197 -65.45446777 480.54211426 C-71.37013837 480.45948079 -71.37013837 480.45948079 -74.54199219 478.14562988 C-77.584332 473.66846923 -76.56692752 468.16079382 -76 463 C-73.36753953 451.11498618 -66.03883081 442.55633375 -56 436 C-52.23423216 433.9210594 -49.39041582 433 -45 433 C-48.29720463 426.51928744 -52.23005695 420.82572842 -56.55664062 415.01464844 C-84.14083807 377.91040421 -84.14083807 377.91040421 -81.5625 356.33984375 C-77.84965379 336.95287972 -64.91118473 324.99931257 -51.89453125 311.109375 C-49.12712087 308.15016391 -46.45110038 305.12241984 -43.8046875 302.0546875 C-40.94679043 298.80089127 -38.00001569 295.6284863 -35.06616211 292.44335938 C-31.76505584 288.85278294 -28.52609864 285.21606542 -25.33984375 281.5234375 C-24.27112096 280.30827165 -23.1442894 279.1442894 -22 278 C-21.88319836 275.18925248 -21.88319836 275.18925248 -22.21484375 271.81640625 C-22.26599838 271.16442764 -22.31715302 270.51244904 -22.36985779 269.8407135 C-23.19955945 259.85123176 -24.41138984 249.89376177 -25.5625 239.9375 C-26.02598866 235.92621059 -26.48500902 231.91444546 -26.94140625 227.90234375 C-27.04763809 226.99604721 -27.15386993 226.08975067 -27.26332092 225.1559906 C-27.7650678 220.74291829 -28.1236782 216.45104618 -28 212 C-28.57347168 211.7321167 -29.14694336 211.4642334 -29.73779297 211.18823242 C-32.07654403 209.95979497 -34.07986589 208.56875704 -36.1953125 206.98828125 C-36.99453125 206.39466797 -37.79375 205.80105469 -38.6171875 205.18945312 C-39.44476563 204.57005859 -40.27234375 203.95066406 -41.125 203.3125 C-51.21661225 195.78422195 -61.41496733 188.62572842 -72.125 182 C-73.15254395 181.3598999 -74.18008789 180.7197998 -75.23876953 180.06030273 C-80.66476581 176.68131568 -86.10178882 173.32078069 -91.546875 169.97265625 C-92.6076123 169.31716797 -93.66834961 168.66167969 -94.76123047 167.98632812 C-96.77241592 166.74372648 -98.78685164 165.50636319 -100.80517578 164.27539062 C-116.2771418 154.70044933 -127.59459958 143.45890852 -136.5625 127.5625 C-137.57743223 125.79786325 -138.59716454 124.03606082 -139.61735535 122.27445984 C-140.32262744 121.05633496 -141.0264052 119.83734371 -141.72871399 118.61750793 C-144.31715913 114.13335733 -146.98803797 109.70534591 -149.703125 105.296875 C-150.0901207 104.66728378 -150.47711639 104.03769257 -150.87583923 103.38902283 C-152.38690168 100.93270483 -153.8989213 98.47708869 -155.42263794 96.02859497 C-161.82661619 85.72971711 -166.49185381 77.45943839 -165 65 C-162.58905362 56.79041847 -158.20803226 51.46433241 -151 47.015625 C-144.54884498 43.73964784 -136.03531702 43.843021 -129.20703125 45.80078125 C-117.15843567 51.23665926 -111.54557357 62.73487704 -105.16796875 73.62890625 C-102.06664787 78.92166033 -98.84123812 84.12816174 -95.5625 89.3125 C-95.0787793 90.08190918 -94.59505859 90.85131836 -94.09667969 91.64404297 C-93.17871571 93.09371159 -92.25221189 94.53801727 -91.31616211 95.97607422 C-90.45620198 97.29847628 -89.61486525 98.63322865 -88.79516602 99.98095703 C-85.82752306 104.60268612 -83.08761308 106.31560659 -77.8125 108.25 C-71.18671621 110.71992569 -71.18671621 110.71992569 -69 114 C-68.92094936 116.33199388 -68.91201231 118.66832622 -69 121 C-67.9171875 121.185625 -67.9171875 121.185625 -66.8125 121.375 C-64.04278106 121.9904931 -61.6029646 122.88444374 -59 124 C-58.505 122.515 -58.505 122.515 -58 121 C-54.71939457 119.35969728 -51.54445298 119.48418361 -48 120 C-44.30735664 121.3582094 -40.90233111 123.17645893 -37.4375 125.03125 C-36.4467749 125.54175903 -35.4560498 126.05226807 -34.43530273 126.57824707 C-30.21670056 128.75267978 -26.01814123 130.96468702 -21.81738281 133.17333984 C-18.73905417 134.78495786 -15.6512221 136.3771677 -12.5625 137.96875 C-11.62269287 138.47184692 -10.68288574 138.97494385 -9.71459961 139.49328613 C-4.13778771 142.36406596 -0.28005184 143.59127973 6 143 C5.41992188 142.23429687 5.41992188 142.23429687 4.828125 141.453125 C-3.74317974 129.48724413 -4.59277891 117.74371981 -4.18896484 103.54077148 C-3.71677708 95.15574777 -3.71677708 95.15574777 -6.70043945 87.62817383 C-8.71716475 85.89765738 -10.7778647 84.45129628 -13 83 C-24.23442747 70.12251184 -26.81201898 55.76521261 -26.15722656 39.30322266 C-25.35948353 27.6170305 -18.7598663 16.79266581 -13.55859375 6.55078125 C-13.13892334 5.72231689 -12.71925293 4.89385254 -12.28686523 4.0402832 C-9.29411896 -0.70461921 -5.0791673 -0.68682306 0 0 Z " fill="#39519C" transform="translate(212,16)"/>
<path d="M0 0 C0.8150853 0.38346336 0.8150853 0.38346336 1.64663696 0.77467346 C4.82948961 2.27165834 8.01227083 3.76854605 11.20068359 5.25366211 C15.41570371 7.23168621 19.55206118 9.26639537 23.6015625 11.56640625 C34.52514782 17.67445076 43.50256208 19.34638132 56 19 C56.14695313 19.75023437 56.29390625 20.50046875 56.4453125 21.2734375 C58.92444924 32.58627986 62.67095456 40.1139697 72.4375 46.625 C80.2704217 50.82803116 88.76127828 51.5003203 97.30078125 49.0546875 C108.55753525 44.5968447 113.2092811 38.95467318 118 28 C119.15570704 24.53287889 119.32835293 21.4585044 119.5625 17.8125 C119.706875 15.564375 119.85125 13.31625 120 11 C125.28 11 130.56 11 136 11 C136.99 12.98 137.98 14.96 139 17 C144.37730897 18.72098292 148.33526029 17.59848629 153.359375 15.47265625 C154.03043274 15.20488876 154.70149048 14.93712128 155.3928833 14.66123962 C157.51844122 13.81018991 159.6342423 12.93759513 161.75 12.0625 C163.88140992 11.19497624 166.01456711 10.33213606 168.14996338 9.47447205 C169.47372786 8.94133187 170.79494787 8.40181911 172.11322021 7.85523987 C174.92266896 6.71102913 176.93181288 6 180 6 C181.5114798 9.57859815 183.00715751 13.16359161 184.5 16.75 C185.14388672 18.27367187 185.14388672 18.27367187 185.80078125 19.828125 C186.20683594 20.8078125 186.61289062 21.7875 187.03125 22.796875 C187.40830078 23.69760742 187.78535156 24.59833984 188.17382812 25.52636719 C189 28 189 28 189 32 C188.47826202 32.25642776 187.95652405 32.51285553 187.41897583 32.77705383 C181.99635188 35.44416665 176.57936243 38.12246654 171.16552734 40.80737305 C169.14351854 41.80831124 167.12008397 42.80637453 165.09521484 43.80151367 C162.18729342 45.23125358 159.28463273 46.67120674 156.3828125 48.11328125 C155.47443634 48.55714676 154.56606018 49.00101227 153.63015747 49.45832825 C152.78943695 49.87853745 151.94871643 50.29874664 151.08251953 50.73168945 C150.34083527 51.09809036 149.599151 51.46449127 148.83499146 51.84199524 C146.69240824 53.0198028 146.69240824 53.0198028 145 56 C144.5884137 58.42620812 144.27785262 60.78171912 144.03857422 63.2253418 C143.92109329 64.3232756 143.92109329 64.3232756 143.80123901 65.44338989 C143.54450443 67.86124288 143.29955747 70.2801378 143.0546875 72.69921875 C142.8789083 74.37652565 142.7023951 76.05375577 142.525177 77.73091125 C142.06083388 82.14424857 141.60647744 86.5585592 141.1541748 90.97314453 C140.69082761 95.47816782 140.21806819 99.98220199 139.74609375 104.48632812 C138.8215011 113.3232748 137.907453 122.16127802 137 131 C136.05674866 131.00364563 135.11349731 131.00729126 134.1416626 131.01104736 C125.2541514 131.04798214 116.36698718 131.10573791 107.47974014 131.18390274 C102.91063242 131.22341898 98.34171861 131.25558699 93.77246094 131.27099609 C89.36316445 131.28613555 84.95440092 131.32053229 80.54534149 131.36830902 C78.86287823 131.38315093 77.18033888 131.39104262 75.49781036 131.39188385 C73.14151633 131.39424693 70.78670315 131.42127041 68.43066406 131.45410156 C67.73438904 131.4490712 67.03811401 131.44404083 66.32073975 131.43885803 C62.99698869 131.51055502 61.26488435 131.79635412 58.5980835 133.84661865 C56.82724086 135.99923441 56.82724086 135.99923441 56 139 C50.72 139 45.44 139 40 139 C38.51157701 129.79664484 37.37504958 120.61885623 36.44921875 111.34375 C36.16250062 108.58301767 35.87106463 105.82278532 35.58007812 103.0625 C35.12738105 98.7602453 34.68109121 94.45762695 34.25805664 90.15234375 C33.91177248 86.63386634 33.54399793 83.11821834 33.16178322 79.60346985 C32.95331877 77.63251419 32.76764793 75.65919028 32.58244324 73.68591309 C31.90003145 66.82297508 31.90003145 66.82297508 28.68481445 60.89086914 C27.79882568 60.26688232 26.91283691 59.64289551 26 59 C25.20271484 58.34894287 24.40542969 57.69788574 23.58398438 57.02709961 C22.35131836 56.09909546 22.35131836 56.09909546 21.09375 55.15234375 C20.18496094 54.46462891 19.27617187 53.77691406 18.33984375 53.06835938 C17.40269531 52.36517578 16.46554688 51.66199219 15.5 50.9375 C13.63504202 49.53044435 11.77044701 48.12290745 9.90625 46.71484375 C9.08447266 46.09730225 8.26269531 45.47976074 7.41601562 44.84350586 C6.61873047 44.23514893 5.82144531 43.62679199 5 43 C4.08387939 42.44739502 3.16775879 41.89479004 2.22387695 41.32543945 C-0.63842907 38.33241444 -0.56842798 36.62132513 -0.56648254 32.60064697 C-0.54067612 31.76821472 -0.51486969 30.93578247 -0.48828125 30.078125 C-0.48120651 29.21813904 -0.47413177 28.35815308 -0.46684265 27.47210693 C-0.43889611 24.7305125 -0.3761598 21.990975 -0.3125 19.25 C-0.28741734 17.38935245 -0.26460411 15.52867283 -0.24414062 13.66796875 C-0.18906887 9.11118894 -0.10279655 4.55594296 0 0 Z " fill="#CB5144" transform="translate(168,157)"/>
<path d="M0 0 C7.71564815 6.86941577 10.1002623 15.65574219 12.47265625 25.39453125 C12.81915699 26.76571315 13.16693542 28.13657273 13.51591492 29.50712585 C14.2400284 32.3663254 14.95235305 35.22810742 15.65551758 38.0925293 C16.54922195 41.73133518 17.46653986 45.36364902 18.39219379 48.99444294 C19.11105465 51.82128985 19.81993888 54.65056441 20.52571678 57.48070335 C20.86023438 58.81947636 21.19705675 60.157676 21.53640175 61.49523354 C25.36868077 76.67052132 27.50505085 88.84313722 19.34765625 102.69921875 C14.44870531 108.94960443 8.24964703 112.60477471 1.21362305 116.06005859 C0.31848495 116.509599 -0.57665314 116.9591394 -1.49891663 117.42230225 C-4.43332547 118.89283987 -7.3746178 120.34897655 -10.31640625 121.8046875 C-12.3646522 122.82668395 -14.41251351 123.84945163 -16.46000671 124.87295532 C-20.73796514 127.00886 -25.01913604 129.13812891 -29.30297852 131.26220703 C-34.80371552 133.98984859 -40.29820243 136.72980069 -45.79061604 139.47415733 C-50.0121087 141.58269463 -54.23575819 143.68687823 -58.46019554 145.78950882 C-60.4880966 146.79901095 -62.5155646 147.80938351 -64.54259682 148.82062912 C-67.36531681 150.22748893 -70.1906367 151.62897385 -73.0168457 153.02880859 C-73.85892578 153.4495163 -74.70100586 153.870224 -75.56860352 154.30368042 C-76.71870659 154.87125061 -76.71870659 154.87125061 -77.89204407 155.45028687 C-78.55954839 155.78171377 -79.22705271 156.11314068 -79.91478443 156.45461082 C-81.578125 157.15625 -81.578125 157.15625 -83.578125 157.15625 C-83.6205835 158.02338623 -83.66304199 158.89052246 -83.70678711 159.78393555 C-84.17260762 168.21340191 -84.88479464 176.59230465 -85.76953125 184.98828125 C-85.87953461 186.03869598 -85.98953796 187.08911072 -86.10287476 188.1713562 C-86.56116256 192.52810942 -87.02254026 196.8844585 -87.49682617 201.23950195 C-89.83858208 222.84361824 -89.76693435 243.05461143 -87.578125 264.65625 C-84.49566579 295.53256119 -84.49566579 295.53256119 -87.703125 300.34375 C-91.12796725 302.50288968 -92.61184341 302.98255866 -96.578125 302.15625 C-100.49182606 298.85134688 -102.39869083 296.81355005 -102.95117188 291.71069336 C-103.07082752 290.22284245 -103.1857087 288.73460303 -103.296875 287.24609375 C-103.39107727 286.04564171 -103.39107727 286.04564171 -103.48718262 284.82093811 C-103.62020893 283.11539656 -103.7512113 281.40969614 -103.88037109 279.70385742 C-104.0734293 277.1557274 -104.2724275 274.60812233 -104.47265625 272.06054688 C-104.6019236 270.39325712 -104.73083933 268.72594007 -104.859375 267.05859375 C-104.916698 266.3214061 -104.974021 265.58421844 -105.03308105 264.82469177 C-105.6523526 256.60852089 -106.10595315 248.38190817 -106.578125 240.15625 C-107.99300201 240.16624275 -107.99300201 240.16624275 -109.4364624 240.17643738 C-118.32373036 240.23724039 -127.21095613 240.28221871 -136.09838486 240.31168652 C-140.66756608 240.3273455 -145.23657945 240.34858799 -149.80566406 240.38256836 C-154.21472067 240.41515357 -158.62361578 240.43310126 -163.03278351 240.44088173 C-164.71531975 240.44642675 -166.39784711 240.4572548 -168.08031464 240.47344017 C-170.4362247 240.49520363 -172.7914666 240.49821743 -175.14746094 240.49682617 C-175.84373596 240.507612 -176.54001099 240.51839783 -177.25738525 240.5295105 C-181.30918019 240.50360315 -183.68248012 240.07155198 -186.578125 237.15625 C-187.36328125 235.2890625 -187.36328125 235.2890625 -187.640625 233.28125 C-187.75535156 232.62382812 -187.87007812 231.96640625 -187.98828125 231.2890625 C-187.31120155 227.76824805 -185.30012127 226.37586531 -182.578125 224.15625 C-179.84706078 223.68526146 -177.7515379 223.51809601 -175.03393555 223.58862305 C-174.29193405 223.58789291 -173.54993256 223.58716278 -172.78544617 223.58641052 C-170.34448927 223.58988084 -167.90546523 223.6287115 -165.46484375 223.66796875 C-163.76806175 223.67729896 -162.07126625 223.68441409 -160.37446594 223.68940735 C-155.91729275 223.70846106 -151.46093949 223.75754715 -147.00408936 223.81292725 C-142.45270885 223.86415526 -137.90119533 223.88692893 -133.34960938 223.91210938 C-124.4254218 223.96566801 -115.50184169 224.05096062 -106.578125 224.15625 C-106.60608154 222.98352539 -106.63403809 221.81080078 -106.6628418 220.60253906 C-106.65772244 213.70634158 -105.90828658 206.87100272 -105.22265625 200.015625 C-105.15166906 199.30197029 -105.08068188 198.58831558 -105.00754356 197.85303497 C-104.63157609 194.08597964 -104.24914089 190.31963962 -103.86206055 186.55371094 C-103.54423653 183.44933013 -103.23948999 180.34408326 -102.94604492 177.23730469 C-102.58964732 173.46410546 -102.21157706 169.69367641 -101.81778526 165.92420197 C-101.67198292 164.49446955 -101.53366674 163.06395229 -101.40314674 161.63274384 C-101.21908339 159.63301391 -101.00432318 157.63618196 -100.78833008 155.63964844 C-100.67507889 154.50541443 -100.5618277 153.37118042 -100.44514465 152.20257568 C-99.15338288 147.66389303 -96.4308819 145.36309625 -92.54768372 142.83366394 C-91.88975327 142.50723404 -91.23182281 142.18080414 -90.55395508 141.84448242 C-89.79999954 141.46446579 -89.04604401 141.08444916 -88.26924133 140.69291687 C-87.47011826 140.30312149 -86.67099518 139.91332611 -85.84765625 139.51171875 C-85.01602463 139.09706863 -84.18439301 138.68241852 -83.32756042 138.25520325 C-81.57919449 137.38587026 -79.82843346 136.52133932 -78.07543945 135.66137695 C-75.38394964 134.34047393 -72.70032593 133.00457074 -70.01757812 131.66601562 C-68.31554106 130.82203502 -66.61308158 129.97890564 -64.91015625 129.13671875 C-63.70236259 128.53684395 -63.70236259 128.53684395 -62.47016907 127.92485046 C-56.81145269 125.15625 -56.81145269 125.15625 -54.578125 125.15625 C-54.97644531 124.03347656 -55.37476563 122.91070312 -55.78515625 121.75390625 C-56.32035562 120.24220277 -56.85550942 118.73048315 -57.390625 117.21875 C-57.65166016 116.48333984 -57.91269531 115.74792969 -58.18164062 114.99023438 C-60.04155723 109.73195164 -61.83130098 104.45314707 -63.578125 99.15625 C-65.06807983 99.75481812 -65.06807983 99.75481812 -66.58813477 100.36547852 C-70.29234066 101.84858364 -74.00475942 103.31008936 -77.7199707 104.76538086 C-79.32351164 105.39693178 -80.9247997 106.03423551 -82.52368164 106.67749023 C-84.82903815 107.60379439 -87.14183891 108.50876447 -89.45703125 109.41015625 C-90.5184005 109.84443687 -90.5184005 109.84443687 -91.60121155 110.28749084 C-96.27256937 112.07550537 -99.58855866 112.45166709 -104.578125 111.15625 C-106.96416803 108.46233045 -107.5086952 106.64225859 -108.015625 103.09375 C-107.45729092 99.34493549 -106.46723551 98.56510314 -103.578125 96.15625 C-101.23261418 94.99705704 -98.97231082 93.99005481 -96.54638672 93.04003906 C-95.84675812 92.75660141 -95.14712952 92.47316376 -94.42630005 92.18113708 C-92.12401368 91.25139428 -89.81615423 90.33646843 -87.5078125 89.421875 C-85.90374219 88.77820346 -84.29999689 88.13372143 -82.69656372 87.48846436 C-79.34168682 86.14081212 -75.98421569 84.79992735 -72.62451172 83.46435547 C-68.31185464 81.74983818 -64.00412785 80.0233386 -59.69804192 78.29239273 C-56.38967422 76.96309065 -53.07974827 75.63770999 -49.76922989 74.31377411 C-48.17969677 73.67807266 -46.59042956 73.04170594 -45.00143051 72.40467072 C-42.78607626 71.51776319 -40.56890511 70.63557565 -38.35107422 69.75488281 C-37.69129578 69.48999557 -37.03151733 69.22510834 -36.35174561 68.95219421 C-31.80750681 67.15625 -31.80750681 67.15625 -29.578125 67.15625 C-29.86945313 66.1353125 -30.16078125 65.114375 -30.4609375 64.0625 C-33.04450261 54.93518387 -35.51639974 45.77769145 -37.890625 36.59375 C-38.29015381 35.09714844 -38.29015381 35.09714844 -38.69775391 33.5703125 C-41.49483881 22.59501416 -41.18758545 14.97411975 -35.890625 4.96875 C-26.44676034 -6.51703135 -12.25745572 -7.0747731 0 0 Z " fill="#3A519C" transform="translate(411.578125,63.84375)"/>
<path d="M0 0 C5.28 0 10.56 0 16 0 C16.99 1.98 17.98 3.96 19 6 C21.9537407 7.47687035 24.96308259 7.17880959 28.20361328 7.20532227 C29.3159584 7.22017166 29.3159584 7.22017166 30.45077515 7.23532104 C32.90725488 7.26696363 35.36375397 7.29170431 37.8203125 7.31640625 C39.521398 7.3369734 41.22247836 7.35796981 42.92355347 7.37937927 C47.40500736 7.43462464 51.88650756 7.48402303 56.36804199 7.53222656 C60.93941377 7.5824236 65.51071813 7.63811904 70.08203125 7.69335938 C79.05462994 7.80097109 88.02728711 7.90240936 97 8 C98.71669444 23.43420141 100.3859452 38.8168955 101.171875 54.33007812 C101.23890625 55.40580078 101.3059375 56.48152344 101.375 57.58984375 C101.42398438 58.51659912 101.47296875 59.44335449 101.5234375 60.39819336 C102.09396204 63.51298846 103.12144668 65.46091419 105 68 C108.07561246 69.35980881 108.07561246 69.35980881 111 70 C111.33 73.3 111.66 76.6 112 80 C111.030625 80.350625 110.06125 80.70125 109.0625 81.0625 C105.66448093 82.73905745 105.66448093 82.73905745 105 86.4375 C104.90377828 90.64062873 104.90377828 90.64062873 107 94 C111.5217262 96.20289225 116.20435889 96.34519473 121.140625 96.71875 C123.82596504 96.98288181 126.36505815 97.42937565 129 98 C132.50907528 98.75511747 135.92141476 99.21853824 139.5 99.5 C143.90439331 99.84787874 148.10889171 100.53404227 152.41796875 101.5 C154.87621921 102.06002088 154.87621921 102.06002088 156.92236328 102.00390625 C159.15725043 102.0663478 160.89327055 102.23657829 163 103 C165.12934808 105.39126649 166.26995479 108.06603971 167.5 111 C167.84546875 111.75023437 168.1909375 112.50046875 168.546875 113.2734375 C171 118.66641865 171 118.66641865 171 120 C160.85519478 120.09292324 150.71049181 120.16387795 140.56534672 120.20724869 C135.8538764 120.22807077 131.14269853 120.25628944 126.43139648 120.30175781 C121.8796599 120.34540837 117.32820357 120.36917752 112.77627373 120.37950897 C111.04482045 120.38686601 109.31338149 120.40123231 107.58204842 120.42292023 C90.3028688 120.63064682 90.3028688 120.63064682 83 116 C82.20207031 115.55398438 81.40414062 115.10796875 80.58203125 114.6484375 C71.20723055 107.90189218 67.55268566 97.04851092 63.5234375 86.625 C63.02709519 85.36566961 62.52956416 84.10680715 62.03091431 82.84838867 C59.93669396 77.55703481 57.86446672 72.25715819 55.79882812 66.95458984 C54.52613509 63.69000175 53.24014289 60.43090932 51.946064 57.17474365 C51.22212947 55.34085182 50.51393189 53.50077293 49.80599976 51.66064453 C49.36519073 50.55188965 48.92438171 49.44313477 48.47021484 48.30078125 C47.89779556 46.83378784 47.89779556 46.83378784 47.31381226 45.3371582 C45.8082304 42.65885849 44.89205129 41.93847879 42 41 C35.70328669 41.08952673 32.41811833 43.44970346 27.75 47.25 C26.3414253 48.35265196 24.92983888 49.45146497 23.515625 50.546875 C22.78021484 51.11728516 22.04480469 51.68769531 21.28710938 52.27539062 C17.45754288 55.16309961 13.47963058 57.82495432 9.5 60.5 C2.59884608 65.15945375 -4.13351658 69.9872284 -10.75 75.04296875 C-11.65685547 75.73519531 -11.65685547 75.73519531 -12.58203125 76.44140625 C-13.1538916 76.88371582 -13.72575195 77.32602539 -14.31494141 77.78173828 C-16 79 -16 79 -19.38671875 80.90234375 C-22.290722 82.80356046 -22.290722 82.80356046 -22.81958008 86.19970703 C-23.02578052 90.5430306 -22.22845387 92.93367917 -20.5 96.90234375 C-20.22858688 97.53799255 -19.95717377 98.17364136 -19.67753601 98.82855225 C-18.80057575 100.87200261 -17.90059983 102.9043735 -17 104.9375 C-16.39532212 106.33696953 -15.79221582 107.73711914 -15.19067383 109.13793945 C-12.6955188 114.92901783 -10.14133862 120.69363302 -7.57421875 126.453125 C-7.24615234 127.19183838 -6.91808594 127.93055176 -6.58007812 128.69165039 C-5.75665795 130.53285934 -4.91620306 132.36642482 -4.07421875 134.19921875 C-3 137 -3 137 -3 141 C-5.57637588 142.36907416 -8.15968104 143.72028455 -10.75 145.0625 C-11.47960937 145.45244141 -12.20921875 145.84238281 -12.9609375 146.24414062 C-14.02441406 146.79038086 -14.02441406 146.79038086 -15.109375 147.34765625 C-15.75874023 147.68804932 -16.40810547 148.02844238 -17.07714844 148.37915039 C-19.51459591 149.16615254 -20.64820924 148.99133914 -23 148 C-24.44116211 146.53564453 -24.44116211 146.53564453 -25.77734375 144.6328125 C-26.28418701 143.92165283 -26.79103027 143.21049316 -27.31323242 142.4777832 C-27.84924072 141.70136475 -28.38524902 140.92494629 -28.9375 140.125 C-29.50380127 139.32215576 -30.07010254 138.51931152 -30.65356445 137.69213867 C-32.44905127 135.13710863 -34.22653673 132.57035626 -36 130 C-36.84788086 128.77676025 -36.84788086 128.77676025 -37.71289062 127.52880859 C-40.99371006 122.78995328 -44.24143124 118.02981775 -47.46875 113.25439453 C-48.95569573 111.0652273 -50.45985607 108.88892187 -51.96875 106.71484375 C-52.87531739 105.39344686 -53.78158466 104.071844 -54.6875 102.75 C-55.30274536 101.87468628 -55.30274536 101.87468628 -55.93041992 100.98168945 C-61.21680783 93.19484571 -61.88056572 85.16234209 -61 76 C-58.01157565 64.43998723 -47.98483511 55.70609881 -40.0703125 47.28515625 C-37.24004649 44.27023368 -34.50570304 41.18571546 -31.8046875 38.0546875 C-29.4121819 35.33075255 -26.9559232 32.66658372 -24.5 30 C-20.88392467 26.07249817 -17.31372859 22.11428948 -13.828125 18.0703125 C-12.38595034 16.43708052 -10.90981743 14.83383501 -9.421875 13.2421875 C-8.74427124 12.5152771 -8.74427124 12.5152771 -8.05297852 11.77368164 C-6.75259524 10.38215761 -5.44484382 8.99752999 -4.13671875 7.61328125 C-1.64082354 4.82753098 -1.64082354 4.82753098 0 0 Z " fill="#4790D2" transform="translate(208,296)"/>
<path d="M0 0 C0.69641602 -0.00700928 1.39283203 -0.01401855 2.11035156 -0.02124023 C4.40730932 -0.03881383 6.70303021 -0.02720107 9 -0.01367188 C10.59896073 -0.01636701 12.19791987 -0.0202496 13.796875 -0.02526855 C17.14599226 -0.03116269 20.49468243 -0.0226038 23.84375 -0.00390625 C28.13478591 0.01888377 32.42482111 0.00576017 36.71582031 -0.01819611 C40.01700366 -0.03265667 43.31795011 -0.02804703 46.61914062 -0.01768494 C48.20117308 -0.01501834 49.78322711 -0.0182851 51.36523438 -0.02760315 C53.57740163 -0.03777366 55.787953 -0.02226378 58 0 C59.8871875 0.00477356 59.8871875 0.00477356 61.8125 0.00964355 C65 0.51757812 65 0.51757812 67.40515137 1.96148682 C69.83318369 5.85293594 69.55813878 9.43030918 69.51757812 13.93261719 C69.5245874 14.88595444 69.53159668 15.83929169 69.53881836 16.82151794 C69.55643414 19.97570872 69.54475886 23.12900306 69.53125 26.28320312 C69.53394477 28.47792737 69.53782706 30.67265045 69.54284668 32.86737061 C69.54874734 37.47077788 69.54016356 42.07387487 69.52148438 46.67724609 C69.4987485 52.56634499 69.51178068 58.45471256 69.53577423 64.34378433 C69.55026256 68.87867694 69.54561131 73.41339767 69.53526306 77.94829559 C69.53260138 80.11873207 69.53584579 82.28918433 69.54518127 84.45960236 C69.55539053 87.50180543 69.53978161 90.54284409 69.51757812 93.58496094 C69.52567505 94.47563766 69.53377197 95.36631439 69.54211426 96.28398132 C69.44856058 103.23639782 67.64945798 108.49414099 63.03515625 113.75976562 C62.38417969 114.29859375 61.73320313 114.83742188 61.0625 115.39257812 C60.41410156 115.946875 59.76570313 116.50117188 59.09765625 117.07226562 C52.59642443 121.55169909 45.62859083 121.19221541 38 120.51757812 C31.34040667 118.8367223 26.81452553 114.05379491 23 108.51757812 C19.76298261 102.08670359 19.87610985 93.97045936 21.6171875 87.07226562 C24.29809639 81.02242699 29.47432915 76.34037394 35.296875 73.33007812 C38.72847223 72.29861537 41.73570464 72.32572214 45.3125 72.39257812 C47.519375 72.43382812 49.72625 72.47507812 52 72.51757812 C52.33 64.59757812 52.66 56.67757812 53 48.51757812 C37.16 48.51757812 21.32 48.51757812 5 48.51757812 C5.15756732 58.35982974 5.15756732 58.35982974 5.36035156 68.20117188 C5.43051097 76.90093869 5.01565075 82.9351059 -0.96484375 89.75976562 C-1.61582031 90.29859375 -2.26679687 90.83742188 -2.9375 91.39257812 C-3.58589844 91.946875 -4.23429687 92.50117188 -4.90234375 93.07226562 C-11.40357557 97.55169909 -18.37140917 97.19221541 -26 96.51757812 C-32.65959333 94.8367223 -37.18547447 90.05379491 -41 84.51757812 C-44.23701739 78.08670359 -44.12389015 69.97045936 -42.3828125 63.07226562 C-39.74331214 57.11587101 -34.62185087 52.32097922 -28.82592773 49.43505859 C-25.32667286 48.29897222 -22.35917668 48.32394865 -18.6875 48.39257812 C-16.80611328 48.41964844 -16.80611328 48.41964844 -14.88671875 48.44726562 C-13.93410156 48.47046875 -12.98148438 48.49367188 -12 48.51757812 C-11.9906543 47.20563477 -11.98130859 45.89369141 -11.97167969 44.54199219 C-11.93180339 39.67380841 -11.86605087 34.80625817 -11.79248047 29.93847656 C-11.76425721 27.83178852 -11.74304944 25.72499433 -11.72900391 23.61816406 C-11.70759339 20.58929033 -11.6609524 17.56169481 -11.609375 14.53320312 C-11.60814636 13.59140198 -11.60691772 12.64960083 -11.60565186 11.67926025 C-11.57607391 10.35834381 -11.57607391 10.35834381 -11.54589844 9.01074219 C-11.53701599 8.23796936 -11.52813354 7.46519653 -11.51898193 6.66900635 C-10.02864481 0.49084648 -5.64394033 0.0142761 0 0 Z " fill="#39519C" transform="translate(59,223.482421875)"/>
<path d="M0 0 C1.5114798 3.57859815 3.00715751 7.16359161 4.5 10.75 C5.14388672 12.27367187 5.14388672 12.27367187 5.80078125 13.828125 C6.20683594 14.8078125 6.61289062 15.7875 7.03125 16.796875 C7.40830078 17.69760742 7.78535156 18.59833984 8.17382812 19.52636719 C9 22 9 22 9 26 C8.47826202 26.25642776 7.95652405 26.51285553 7.41897583 26.77705383 C1.99635188 29.44416665 -3.42063757 32.12246654 -8.83447266 34.80737305 C-10.85648146 35.80831124 -12.87991603 36.80637453 -14.90478516 37.80151367 C-17.81270658 39.23125358 -20.71536727 40.67120674 -23.6171875 42.11328125 C-24.52556366 42.55714676 -25.43393982 43.00101227 -26.36984253 43.45832825 C-27.21056305 43.87853745 -28.05128357 44.29874664 -28.91748047 44.73168945 C-29.65916473 45.09809036 -30.400849 45.46449127 -31.16500854 45.84199524 C-33.30759176 47.0198028 -33.30759176 47.0198028 -35 50 C-35.51858315 52.64175435 -35.51858315 52.64175435 -35.77783203 55.66479492 C-35.95779221 57.40626045 -35.95779221 57.40626045 -36.14138794 59.1829071 C-36.3227681 61.06270012 -36.3227681 61.06270012 -36.5078125 62.98046875 C-36.70333206 64.90515739 -36.70333206 64.90515739 -36.90280151 66.86872864 C-37.24883135 70.27597356 -37.58480705 73.68413767 -37.91870117 77.09259033 C-38.26135052 80.57210327 -38.61349568 84.05065347 -38.96484375 87.52929688 C-39.65252766 94.35195226 -40.32959511 101.1756257 -41 108 C-42.25232422 107.84926025 -43.50464844 107.69852051 -44.79492188 107.54321289 C-45.49935425 107.45842178 -46.20378662 107.37363068 -46.92956543 107.28627014 C-69.53990986 104.16003443 -90.53694542 89.63569571 -104.37109375 71.97265625 C-111.69293218 61.78628744 -117.31027285 51.08521393 -120.9375 39.0625 C-121.14922852 38.36479492 -121.36095703 37.66708984 -121.57910156 36.94824219 C-122.83078599 32.49804558 -123.19877409 28.61999184 -123 24 C-120.58715019 26.22236167 -119.0381722 28.49677864 -117.375 31.3125 C-112.90978704 38.13250188 -106.77932812 41.82492337 -99 44 C-88.12327389 45.34193374 -79.83317732 42.56471947 -70.625 36.9375 C-64.27847302 29.83543409 -61.03988886 21.19255506 -60.4375 11.8125 C-60.293125 9.564375 -60.14875 7.31625 -60 5 C-54.72 5 -49.44 5 -44 5 C-43.01 6.98 -42.02 8.96 -41 11 C-35.62269103 12.72098292 -31.66473971 11.59848629 -26.640625 9.47265625 C-25.96956726 9.20488876 -25.29850952 8.93712128 -24.6071167 8.66123962 C-22.48155878 7.81018991 -20.3657577 6.93759513 -18.25 6.0625 C-16.11859008 5.19497624 -13.98543289 4.33213606 -11.85003662 3.47447205 C-10.52627214 2.94133187 -9.20505213 2.40181911 -7.88677979 1.85523987 C-5.07733104 0.71102913 -3.06818712 0 0 0 Z " fill="#F6654F" transform="translate(348,163)"/>
<path d="M0 0 C4.78310397 3.14318261 6.74570147 8.619887 8 14 C9.60345868 27.51309378 7.7719431 38.55233998 -0.1875 49.8125 C-7.9619909 59.06547314 -19.56203406 64.28890449 -30 70 C-30 73.91603701 -28.61094595 75.75610686 -26.640625 79.13671875 C-26.29497498 79.73498978 -25.94932495 80.3332608 -25.59320068 80.94966125 C-24.4848553 82.86586222 -23.36792249 84.77687322 -22.25 86.6875 C-20.79360607 89.18951828 -19.34075654 91.69356597 -17.890625 94.19921875 C-17.36970276 95.09917068 -17.36970276 95.09917068 -16.83825684 96.01730347 C-11.62540079 105.07001177 -7.27235942 112.71548728 -9.49609375 123.37890625 C-11.65904694 130.6009703 -14.99676333 135.10164712 -21.5 138.875 C-28.44009417 142.0558765 -35.53623648 142.33851506 -42.83984375 140.1484375 C-50.07261457 136.95079145 -54.01629181 132.14775349 -57.375 125.125 C-59.21343977 115.93280115 -58.0062324 108.64599553 -52.9375 100.8125 C-49.48108521 96.91869938 -44.66127065 95.09421685 -40 93 C-43.14786128 87.1853218 -46.3298489 81.39207993 -49.578125 75.6328125 C-50.18140625 74.56289063 -50.7846875 73.49296875 -51.40625 72.390625 C-52.64922801 70.1890792 -53.89406036 67.98857945 -55.140625 65.7890625 C-55.73875 64.726875 -56.336875 63.6646875 -56.953125 62.5703125 C-57.49098633 61.61914551 -58.02884766 60.66797852 -58.58300781 59.68798828 C-62.57991696 52.1059811 -63.61615707 44.50245105 -61.16015625 36.140625 C-56.29546719 25.33020487 -45.28187159 20.68587021 -35.375 15.125 C-33.58340351 14.11201956 -31.79268908 13.0974977 -30.0022583 12.0824585 C-28.81004549 11.40882515 -27.61599157 10.73843969 -26.42010498 10.0713501 C-23.31344937 8.33480277 -20.25137754 6.55237698 -17.22753906 4.67480469 C-16.60916168 4.29895233 -15.9907843 3.92309998 -15.35366821 3.53585815 C-13.64155122 2.49216389 -11.94073623 1.42999416 -10.24072266 0.36669922 C-6.30488527 -1.29314843 -4.10058796 -1.02158045 0 0 Z " fill="#39519C" transform="translate(488,211)"/>
<path d="M0 0 C1.48257821 0.70085516 2.94076749 1.45488163 4.375 2.25 C17.09996603 8.73429786 30.00301704 11.08181169 44 13 C44.12491787 18.19197105 44.21495057 23.38304072 44.2746582 28.57617188 C44.2995842 30.33739486 44.33353826 32.0985168 44.37719727 33.859375 C44.68415527 46.57104782 44.1771663 58.60855013 34.9453125 68.46875 C25.90087762 75.5880642 16.26022907 77.93070578 5 77 C1.6699844 76.11570147 -1.06400042 74.78615944 -4 73 C-4.69867188 72.5875 -5.39734375 72.175 -6.1171875 71.75 C-13.51611654 66.8359943 -17.61853869 59.43086528 -20 51 C-20.78353905 45.09324135 -20.83710447 39.102295 -20.97485352 33.15234375 C-21.03310351 31.22344144 -21.12181027 29.29520976 -21.24145508 27.36914062 C-22.18816424 11.89342505 -22.18816424 11.89342505 -18.55340576 7.0871582 C-13.64987242 2.49340433 -6.87565107 -2.523232 0 0 Z " fill="#F8E009" transform="translate(244,83)"/>
<path d="M0 0 C3.75221198 0.62311101 6.89172701 1.74217224 10.375 3.25 C16.71191025 5.74416147 23.09845879 7.31291897 29.75 8.75 C30.7198584 8.96043945 31.6897168 9.17087891 32.68896484 9.38769531 C44.60551694 11.87565476 56.17610333 12.24899112 68.33984375 12.34179688 C79.04719502 12.5813474 86.36162247 14.7495873 94.2734375 22.0625 C99.79511306 28.2587694 101.45546517 35.52701944 101.42578125 43.640625 C100.7012575 49.35705088 98.13579067 54.2150759 95 59 C94.01 59.495 94.01 59.495 93 60 C92.95101562 59.31292969 92.90203125 58.62585938 92.8515625 57.91796875 C92.73941406 56.56638672 92.73941406 56.56638672 92.625 55.1875 C92.55539062 54.29417969 92.48578125 53.40085938 92.4140625 52.48046875 C92.13354964 49.75601501 92.13354964 49.75601501 90 47 C87.08345539 46.02781846 84.70387515 45.88407771 81.65795898 45.81225586 C64.19584758 45.30848412 47.68652713 40.2351141 32.99609375 30.69921875 C29.79487463 29.57785237 27.28300374 30.31384304 24 31 C20.88952076 32.65085401 20.88952076 32.65085401 17.953125 34.8515625 C17.1463028 35.41899673 17.1463028 35.41899673 16.32318115 35.99789429 C14.6230912 37.1947816 12.93567678 38.40791531 11.25 39.625 C9.54940072 40.84816216 7.84646655 42.06706843 6.13397217 43.27352905 C4.59008409 44.36158731 3.05694722 45.4648534 1.52441406 46.56884766 C0.69135742 47.04112793 -0.14169922 47.5134082 -1 48 C-4 47 -4 47 -5.1328125 45.109375 C-5.46023437 44.33078125 -5.78765625 43.5521875 -6.125 42.75 C-6.62386719 41.59757812 -6.62386719 41.59757812 -7.1328125 40.421875 C-10.86644221 29.99462085 -9.49277793 19.88985301 -5 10 C-3.40231759 6.6281207 -1.74544189 3.29774063 0 0 Z " fill="#4790D2" transform="translate(211,35)"/>
<path d="M0 0 C5.27409122 4.24239715 8.39093155 10.09660004 11.875 15.8125 C12.52122314 16.85825195 13.16744629 17.90400391 13.83325195 18.98144531 C15.89469725 22.31738794 17.94773685 25.65840216 20 29 C22.72138043 33.42153004 25.45214731 37.83710416 28.1875 42.25 C28.81060059 43.26682861 29.43370117 44.28365723 30.07568359 45.33129883 C30.6630127 46.27900146 31.2503418 47.2267041 31.85546875 48.203125 C32.36746826 49.03489258 32.87946777 49.86666016 33.40698242 50.72363281 C36.91374563 55.73467652 40.69717047 58.0919683 46.3125 60.3125 C46.95123047 60.58900391 47.58996094 60.86550781 48.24804688 61.15039062 C52.87184159 63.01021484 56.1782759 63.19032537 61 62 C61.515625 61.46375 62.03125 60.9275 62.5625 60.375 C63.036875 59.92125 63.51125 59.4675 64 59 C68.01321783 59.25616284 70.3521289 60.17606445 74 62 C74 76.85 74 91.7 74 107 C70.55478164 105.62191266 68.04051123 104.53527676 65.0234375 102.6015625 C64.27924561 102.1279126 63.53505371 101.6542627 62.76831055 101.16625977 C61.97851807 100.65764404 61.18872559 100.14902832 60.375 99.625 C58.68116905 98.54268783 56.98715302 97.46066526 55.29296875 96.37890625 C54.42333496 95.82219238 53.55370117 95.26547852 52.65771484 94.69189453 C50.02728944 93.01737239 47.38540938 91.36281319 44.73828125 89.71484375 C43.89152832 89.18616699 43.04477539 88.65749023 42.17236328 88.11279297 C40.55676716 87.10483115 38.93934757 86.09978416 37.31982422 85.09814453 C23.38484606 76.36870942 15.70253024 64.0232789 7.6875 50 C6.58354636 48.08856008 5.47689646 46.17869769 4.37014771 44.26887512 C3.63462594 42.99919335 2.89997782 41.72900505 2.16622925 40.45829773 C-1.64537 33.86204549 -5.56995426 27.33518695 -9.5090332 20.81445312 C-9.95980225 20.06744141 -10.41057129 19.32042969 -10.875 18.55078125 C-11.26429687 17.90794189 -11.65359375 17.26510254 -12.0546875 16.6027832 C-14.28264625 12.82526533 -14.85058744 9.31900224 -14 5 C-9.76147766 -0.08622681 -6.49629303 -1.03115762 0 0 Z " fill="#F7DF09" transform="translate(78,78)"/>
<path d="M0 0 C3.55461725 1.23120821 5.32489321 3.55379166 7.09765625 6.7265625 C8.61589923 11.06943487 9.64045537 15.49392292 10.66015625 19.9765625 C10.95897705 21.22840332 11.25779785 22.48024414 11.56567383 23.77001953 C13.37665966 31.40831818 15.10700889 39.06698048 16.74145508 46.74511719 C17.7292277 51.32336491 18.97181353 55.7490813 20.34765625 60.2265625 C22.39929669 67.2607583 23.78459332 73.35268836 20.41015625 80.1015625 C15.7776889 85.36003895 10.49280159 88.23503292 4.296875 91.2734375 C3.46050003 91.68950256 2.62412506 92.10556763 1.7624054 92.53424072 C-0.89390019 93.85403733 -3.55426729 95.1654004 -6.21484375 96.4765625 C-8.02306159 97.37314325 -9.83100742 98.2702728 -11.63867188 99.16796875 C-16.05677177 101.36053335 -20.47853198 103.54554694 -24.90234375 105.7265625 C-27.0117243 103.08435621 -28.50279546 100.65230895 -29.7265625 97.50390625 C-30.03271484 96.71822266 -30.33886719 95.93253906 -30.65429688 95.12304688 C-31.11739258 93.90584961 -31.11739258 93.90584961 -31.58984375 92.6640625 C-31.91017578 91.84873047 -32.23050781 91.03339844 -32.56054688 90.19335938 C-34.90234375 84.11667111 -34.90234375 84.11667111 -34.90234375 80.7265625 C-33.63173096 80.20485474 -33.63173096 80.20485474 -32.33544922 79.67260742 C-29.17014793 78.37168289 -26.00570088 77.06872146 -22.84179688 75.7644043 C-21.47657002 75.20207162 -20.11101508 74.64053474 -18.74511719 74.07983398 C-16.7732035 73.27019789 -14.80251742 72.45763445 -12.83203125 71.64453125 C-11.64851074 71.15750732 -10.46499023 70.6704834 -9.24560547 70.16870117 C-8.1423291 69.69279541 -7.03905273 69.21688965 -5.90234375 68.7265625 C-4.79004395 68.35700439 -3.67774414 67.98744629 -2.53173828 67.60668945 C0.17612885 66.04276954 0.17612885 66.04276954 0.77284241 63.89422607 C1.71970199 57.79579704 0.40704147 52.36889355 -1.2109375 46.50390625 C-1.45650894 45.55898819 -1.70208038 44.61407013 -1.95509338 43.64051819 C-2.7353554 40.64428172 -3.5358164 37.6540015 -4.33984375 34.6640625 C-5.13821647 31.67010447 -5.93180562 28.67515317 -6.71388245 25.67689514 C-7.19914246 23.81882474 -7.69384817 21.96318634 -8.1995697 20.11058044 C-9.58881183 14.81823695 -10.28498317 10.20297071 -9.90234375 4.7265625 C-7.42768461 0.6021306 -4.68394204 0.24211231 0 0 Z " fill="#FABB05" transform="translate(397.90234375,75.2734375)"/>
<path d="M0 0 C0.99 0 1.98 0 3 0 C3.46677799 4.10324982 3.92299521 8.20759697 4.375 12.3125 C4.51292969 13.56168213 4.65085937 14.81086426 4.79296875 16.09790039 C5.87454893 26.1751699 6.65572437 36.25447454 7.17724609 46.37817383 C7.24250488 47.4380249 7.30776367 48.49787598 7.375 49.58984375 C7.42398437 50.51659912 7.47296875 51.44335449 7.5234375 52.39819336 C8.09396204 55.51298846 9.12144668 57.46091419 11 60 C14.07561246 61.35980881 14.07561246 61.35980881 17 62 C17.33 65.3 17.66 68.6 18 72 C17.030625 72.350625 16.06125 72.70125 15.0625 73.0625 C11.66448093 74.73905745 11.66448093 74.73905745 11 78.4375 C10.90377828 82.64062873 10.90377828 82.64062873 13 86 C17.5217262 88.20289225 22.20435889 88.34519473 27.140625 88.71875 C29.82596504 88.98288181 32.36505815 89.42937565 35 90 C38.50907528 90.75511747 41.92141476 91.21853824 45.5 91.5 C49.97537098 91.85348487 54.24318398 92.58313864 58.62890625 93.5234375 C62.06955623 94.21496847 65.51312763 94.61256974 69 95 C69.66 96.98 70.32 98.96 71 101 C61.6966274 101.26069456 52.48766859 100.55679256 43.22167969 99.828125 C40.63783947 99.62600437 38.05339711 99.43367921 35.46875 99.2421875 C7.49096978 97.11698276 7.49096978 97.11698276 2.33935547 91.87329102 C-2.5344894 85.05648247 -4.16830479 76.07326088 -6.0625 68.0625 C-6.55219831 66.03226538 -7.04307812 64.00231537 -7.53515625 61.97265625 C-7.77379395 60.98281738 -8.01243164 59.99297852 -8.25830078 58.97314453 C-8.9981347 56.00747716 -9.79978971 53.06513753 -10.62109375 50.12109375 C-14.17470313 37.20161557 -14.48362955 24.44545488 -9 12 C-6.41216238 7.62545935 -3.59820813 3.59820813 0 0 Z " fill="#56B5E9" transform="translate(302,304)"/>
<path d="M0 0 C5.82485779 3.51996782 10.54466582 8.98962934 12.5625 15.5 C13.36764105 23.33608208 13.68710392 31.11922577 8.5625 37.5 C3.75801361 42.54521222 -0.59927055 46.10562995 -7.70703125 46.8359375 C-16.22326573 46.92983204 -22.11345494 46.6177288 -28.40234375 40.62890625 C-34.7841668 33.72505269 -35.91792252 28.29832071 -35.7421875 18.9453125 C-35.04689797 11.08319245 -31.38995981 6.95041296 -25.53515625 1.9453125 C-18.47077988 -2.92213491 -7.84396301 -3.47595223 0 0 Z " fill="#39519C" transform="translate(483.4375,73.5)"/>
<path d="M0 0 C7.35063311 1.25567437 16.97363158 3.45245659 21.99609375 9.33984375 C22.91627236 11.03161688 23.79813996 12.7447877 24.640625 14.4765625 C30.20722552 24.80996461 42.78955345 29.81004604 53.375 33.25 C60.60617611 35.22360959 67.88823388 35.77173371 75.36083984 36.14160156 C81.00462586 36.49452726 84.54119699 37.19710855 89 41 C91.4375 44.0625 91.4375 44.0625 93 47 C92.67 47.99 92.34 48.98 92 50 C91.34 49.01 90.68 48.02 90 47 C87.08345539 46.02781846 84.70387515 45.88407771 81.65795898 45.81225586 C64.19584758 45.30848412 47.68652713 40.2351141 32.99609375 30.69921875 C29.79487463 29.57785237 27.28300374 30.31384304 24 31 C20.88952076 32.65085401 20.88952076 32.65085401 17.953125 34.8515625 C17.1463028 35.41899673 17.1463028 35.41899673 16.32318115 35.99789429 C14.6230912 37.1947816 12.93567678 38.40791531 11.25 39.625 C9.54940072 40.84816216 7.84646655 42.06706843 6.13397217 43.27352905 C4.59008409 44.36158731 3.05694722 45.4648534 1.52441406 46.56884766 C0.69135742 47.04112793 -0.14169922 47.5134082 -1 48 C-4 47 -4 47 -5.1328125 45.109375 C-5.46023437 44.33078125 -5.78765625 43.5521875 -6.125 42.75 C-6.62386719 41.59757812 -6.62386719 41.59757812 -7.1328125 40.421875 C-10.86644221 29.99462085 -9.49277793 19.88985301 -5 10 C-3.40231759 6.6281207 -1.74544189 3.29774063 0 0 Z " fill="#2D71BB" transform="translate(211,35)"/>
<path d="M0 0 C2.97076826 2.78890923 5.15727513 5.57347948 7.28515625 9.04296875 C7.89238525 10.02539551 8.49961426 11.00782227 9.12524414 12.02001953 C9.76453857 13.06528809 10.40383301 14.11055664 11.0625 15.1875 C12.41561489 17.37695245 13.76978655 19.56575214 15.125 21.75390625 C15.78757812 22.82527832 16.45015625 23.89665039 17.1328125 25.00048828 C19.98015023 29.57454572 22.90404761 34.09640668 25.85888672 38.6015625 C28.47593087 42.60307621 31.01603318 46.64171135 33.5078125 50.72265625 C34.42324829 52.20548096 34.42324829 52.20548096 35.35717773 53.71826172 C36.54375118 55.64317918 37.71853016 57.57543699 38.87915039 59.51611328 C43.69350231 67.27982973 49.4184257 72.94555228 58.37890625 75.5234375 C65.58202819 76.83309604 73.26225877 77.63188475 79.6875 73.625 C80.81006985 72.77373861 81.91658728 71.90056977 83 71 C83.99 70.34 84.98 69.68 86 69 C86 80.55 86 92.1 86 104 C82.55478164 102.62191266 80.04051123 101.53527676 77.0234375 99.6015625 C76.27924561 99.1279126 75.53505371 98.6542627 74.76831055 98.16625977 C73.97851807 97.65764404 73.18872559 97.14902832 72.375 96.625 C70.68116905 95.54268783 68.98715302 94.46066526 67.29296875 93.37890625 C66.42333496 92.82219238 65.55370117 92.26547852 64.65771484 91.69189453 C62.02728944 90.01737239 59.38540938 88.36281319 56.73828125 86.71484375 C55.89152832 86.18616699 55.04477539 85.65749023 54.17236328 85.11279297 C52.55676716 84.10483115 50.93934757 83.09978416 49.31982422 82.09814453 C35.38484606 73.36870942 27.70253024 61.0232789 19.6875 47 C18.58354636 45.08856008 17.47689646 43.17869769 16.37014771 41.26887512 C15.63462594 39.99919335 14.89997782 38.72900505 14.16622925 37.45829773 C10.35463 30.86204549 6.43004574 24.33518695 2.4909668 17.81445312 C2.04019775 17.06744141 1.58942871 16.32042969 1.125 15.55078125 C0.73570313 14.90794189 0.34640625 14.26510254 -0.0546875 13.6027832 C-1.66283136 10.87616533 -2.15849188 9.15608373 -2.1875 6 C-2.20167969 5.29875 -2.21585938 4.5975 -2.23046875 3.875 C-2 2 -2 2 0 0 Z " fill="#FABB05" transform="translate(66,81)"/>
<path d="M0 0 C1.60546875 2.1875 1.60546875 2.1875 3.1875 5 C3.71730469 5.928125 4.24710937 6.85625 4.79296875 7.8125 C5.19128906 8.534375 5.58960938 9.25625 6 10 C5.01 11.32 4.02 12.64 3 14 C2.67 20.27 2.34 26.54 2 33 C-21.1 33 -44.2 33 -68 33 C-66.43565258 26.74261033 -62.09283962 21.9175727 -56.5625 18.5625 C-52.64839228 16.79147787 -49.19441852 16.92875889 -44.9375 16.9375 C-33.18009992 16.8084225 -23.14705617 10.34209439 -13 5 C-11.16780377 4.03970278 -9.33201783 3.08621377 -7.4921875 2.140625 C-6.69925293 1.72844727 -5.90631836 1.31626953 -5.08935547 0.89160156 C-3 0 -3 0 0 0 Z " fill="#CB5144" transform="translate(222,447)"/>
<path d="M0 0 C1.48257821 0.70085516 2.94076749 1.45488163 4.375 2.25 C17.07138254 8.71973249 30.01254307 11.14805468 44 13 C44 15.64 44 18.28 44 21 C28.78094056 20.70885278 15.58545528 16.63034588 2.62011719 8.77148438 C-1.33944848 6.39368114 -1.33944848 6.39368114 -5.796875 6.62109375 C-7.54983444 7.71824744 -9.2793222 8.85288147 -11 10 C-11.70928505 14.24828758 -11.5091109 18.57465348 -11.5 22.875 C-11.52835938 24.05320312 -11.55671875 25.23140625 -11.5859375 26.4453125 C-11.61152171 38.06054371 -8.0888306 48.47135119 0 57 C7.81279426 64.25594283 17.63363933 68.17789522 28.25 68.0625 C29.32765625 68.05347656 30.4053125 68.04445313 31.515625 68.03515625 C32.33546875 68.02355469 33.1553125 68.01195312 34 68 C28.84155194 73.68036162 22.19965524 76.42865155 14.640625 77.45703125 C7.54986918 77.6817383 2.06692567 76.69090535 -4 73 C-4.69867188 72.5875 -5.39734375 72.175 -6.1171875 71.75 C-13.51611654 66.8359943 -17.61853869 59.43086528 -20 51 C-20.78353905 45.09324135 -20.83710447 39.102295 -20.97485352 33.15234375 C-21.03310351 31.22344144 -21.12181027 29.29520976 -21.24145508 27.36914062 C-22.18816424 11.89342505 -22.18816424 11.89342505 -18.55340576 7.0871582 C-13.64987242 2.49340433 -6.87565107 -2.523232 0 0 Z " fill="#F9BB05" transform="translate(244,83)"/>
<path d="M0 0 C0 23.1 0 46.2 0 70 C-6.23194644 68.44201339 -11.05730408 64.11007983 -14.4375 58.625 C-15.98656632 55.2157578 -16.05531097 52.30034602 -16.01245117 48.58813477 C-15.94891157 37.93216928 -19.7640687 30.27777819 -24.87109375 21.0234375 C-25.41121094 20.03988281 -25.95132812 19.05632812 -26.5078125 18.04296875 C-27.00941895 17.16664795 -27.51102539 16.29032715 -28.02783203 15.38745117 C-29 13 -29 13 -28.82250977 10.83227539 C-27.40603245 7.67683987 -24.60273352 6.10211177 -21.8125 4.25 C-20.99362305 3.63318359 -20.99362305 3.63318359 -20.15820312 3.00390625 C-13.23350096 -1.61256186 -9.50051179 0 0 0 Z " fill="#F7654F" transform="translate(416,384)"/>
<path d="M0 0 C0.680625 0.06445312 1.36125 0.12890625 2.0625 0.1953125 C4.80744833 1.15825808 5.61239055 2.34035734 7 4.875 C7.29296875 7.671875 7.29296875 7.671875 7.1875 10.625 C7.14689453 12.10226563 7.14689453 12.10226563 7.10546875 13.609375 C7.07066406 14.35703125 7.03585938 15.1046875 7 15.875 C7.66386719 15.84019531 8.32773438 15.80539063 9.01171875 15.76953125 C17.96988245 15.49490141 17.96988245 15.49490141 22 18.875 C23.61408479 22.10316959 23.57258438 25.38430484 23 28.875 C21.1875 31.375 21.1875 31.375 18 32.875 C14.30721219 33.18618998 10.69554726 33.10799422 7 32.875 C7.05800781 33.69484375 7.11601562 34.5146875 7.17578125 35.359375 C7.54380665 44.14992447 7.54380665 44.14992447 4.9375 47.625 C1.28282963 49.18017888 -1.06555918 49.4472823 -5 48.875 C-7.36497439 47.00791495 -8.66030715 45.55438569 -10 42.875 C-10.06996014 41.16797265 -10.08440154 39.45831997 -10.0625 37.75 C-10.05347656 36.83992188 -10.04445312 35.92984375 -10.03515625 34.9921875 C-10.02355469 34.29351562 -10.01195312 33.59484375 -10 32.875 C-10.74765625 32.92140625 -11.4953125 32.9678125 -12.265625 33.015625 C-20.2973384 33.30998099 -20.2973384 33.30998099 -23.625 31.25 C-25.33201357 28.30152201 -25.93026479 26.29202512 -26 22.875 C-24.39588152 19.34593933 -23.25840638 18.04727092 -20 15.875 C-17.51953125 15.6796875 -17.51953125 15.6796875 -14.8125 15.75 C-13.91144531 15.76804687 -13.01039063 15.78609375 -12.08203125 15.8046875 C-11.39496094 15.82789063 -10.70789063 15.85109375 -10 15.875 C-10.03480469 15.28332031 -10.06960937 14.69164062 -10.10546875 14.08203125 C-10.27430004 9.15376563 -10.25919114 5.85845584 -7 1.875 C-3.88134716 -0.2041019 -3.46260478 -0.40659374 0 0 Z " fill="#38509D" transform="translate(149,39.125)"/>
<path d="M0 0 C0.66 -0.0103125 1.32 -0.020625 2 -0.03125 C4.98174986 0.76077731 6.16411059 2.04673186 8 4.5 C8.390625 7.515625 8.390625 7.515625 8.25 10.75 C8.21390625 11.82765625 8.1778125 12.9053125 8.140625 14.015625 C8.09421875 14.83546875 8.0478125 15.6553125 8 16.5 C8.81984375 16.45359375 9.6396875 16.4071875 10.484375 16.359375 C11.56203125 16.32328125 12.6396875 16.2871875 13.75 16.25 C15.35101563 16.18039062 15.35101563 16.18039062 16.984375 16.109375 C20 16.5 20 16.5 22.359375 18.265625 C24.09023982 20.62289805 24.54492653 21.62470206 24.5 24.5 C24.5103125 25.16 24.520625 25.82 24.53125 26.5 C23.73922269 29.48174986 22.45326814 30.66411059 20 32.5 C16.984375 32.890625 16.984375 32.890625 13.75 32.75 C12.67234375 32.71390625 11.5946875 32.6778125 10.484375 32.640625 C9.66453125 32.59421875 8.8446875 32.5478125 8 32.5 C8.04640625 33.31984375 8.0928125 34.1396875 8.140625 34.984375 C8.19476563 36.60085938 8.19476563 36.60085938 8.25 38.25 C8.29640625 39.31734375 8.3428125 40.3846875 8.390625 41.484375 C8 44.5 8 44.5 6.234375 46.859375 C3.87710195 48.59023982 2.87529794 49.04492653 0 49 C-0.99 49.01546875 -0.99 49.01546875 -2 49.03125 C-4.98174986 48.23922269 -6.16411059 46.95326814 -8 44.5 C-8.390625 41.484375 -8.390625 41.484375 -8.25 38.25 C-8.21390625 37.17234375 -8.1778125 36.0946875 -8.140625 34.984375 C-8.09421875 34.16453125 -8.0478125 33.3446875 -8 32.5 C-8.81984375 32.54640625 -9.6396875 32.5928125 -10.484375 32.640625 C-12.10085937 32.69476563 -12.10085937 32.69476563 -13.75 32.75 C-14.81734375 32.79640625 -15.8846875 32.8428125 -16.984375 32.890625 C-20 32.5 -20 32.5 -22.359375 30.734375 C-24.09023982 28.37710195 -24.54492653 27.37529794 -24.5 24.5 C-24.51546875 23.51 -24.51546875 23.51 -24.53125 22.5 C-23.73922269 19.51825014 -22.45326814 18.33588941 -20 16.5 C-16.984375 16.109375 -16.984375 16.109375 -13.75 16.25 C-12.67234375 16.28609375 -11.5946875 16.3221875 -10.484375 16.359375 C-9.25460938 16.42898438 -9.25460938 16.42898438 -8 16.5 C-8.04640625 15.68015625 -8.0928125 14.8603125 -8.140625 14.015625 C-8.17671875 12.93796875 -8.2128125 11.8603125 -8.25 10.75 C-8.29640625 9.68265625 -8.3428125 8.6153125 -8.390625 7.515625 C-8 4.5 -8 4.5 -6.234375 2.140625 C-3.87710195 0.40976018 -2.87529794 -0.04492653 0 0 Z " fill="#38519D" transform="translate(48,375.5)"/>
<path d="M0 0 C0.66 -0.0103125 1.32 -0.020625 2 -0.03125 C4.98174986 0.76077731 6.16411059 2.04673186 8 4.5 C8.390625 7.515625 8.390625 7.515625 8.25 10.75 C8.21390625 11.82765625 8.1778125 12.9053125 8.140625 14.015625 C8.09421875 14.83546875 8.0478125 15.6553125 8 16.5 C8.81984375 16.45359375 9.6396875 16.4071875 10.484375 16.359375 C11.56203125 16.32328125 12.6396875 16.2871875 13.75 16.25 C15.35101563 16.18039062 15.35101563 16.18039062 16.984375 16.109375 C20 16.5 20 16.5 22.359375 18.265625 C24.09023982 20.62289805 24.54492653 21.62470206 24.5 24.5 C24.5103125 25.16 24.520625 25.82 24.53125 26.5 C23.73922269 29.48174986 22.45326814 30.66411059 20 32.5 C16.984375 32.890625 16.984375 32.890625 13.75 32.75 C12.67234375 32.71390625 11.5946875 32.6778125 10.484375 32.640625 C9.66453125 32.59421875 8.8446875 32.5478125 8 32.5 C8.04640625 33.31984375 8.0928125 34.1396875 8.140625 34.984375 C8.19476563 36.60085938 8.19476563 36.60085938 8.25 38.25 C8.29640625 39.31734375 8.3428125 40.3846875 8.390625 41.484375 C8 44.5 8 44.5 6.234375 46.859375 C3.87710195 48.59023982 2.87529794 49.04492653 0 49 C-0.99 49.01546875 -0.99 49.01546875 -2 49.03125 C-4.98174986 48.23922269 -6.16411059 46.95326814 -8 44.5 C-8.390625 41.484375 -8.390625 41.484375 -8.25 38.25 C-8.21390625 37.17234375 -8.1778125 36.0946875 -8.140625 34.984375 C-8.09421875 34.16453125 -8.0478125 33.3446875 -8 32.5 C-8.81984375 32.54640625 -9.6396875 32.5928125 -10.484375 32.640625 C-12.10085938 32.69476563 -12.10085938 32.69476563 -13.75 32.75 C-14.81734375 32.79640625 -15.8846875 32.8428125 -16.984375 32.890625 C-20 32.5 -20 32.5 -22.359375 30.734375 C-24.09023982 28.37710195 -24.54492653 27.37529794 -24.5 24.5 C-24.51546875 23.51 -24.51546875 23.51 -24.53125 22.5 C-23.73922269 19.51825014 -22.45326814 18.33588941 -20 16.5 C-16.984375 16.109375 -16.984375 16.109375 -13.75 16.25 C-12.67234375 16.28609375 -11.5946875 16.3221875 -10.484375 16.359375 C-9.25460937 16.42898438 -9.25460937 16.42898438 -8 16.5 C-8.04640625 15.68015625 -8.0928125 14.8603125 -8.140625 14.015625 C-8.17671875 12.93796875 -8.2128125 11.8603125 -8.25 10.75 C-8.29640625 9.68265625 -8.3428125 8.6153125 -8.390625 7.515625 C-8 4.5 -8 4.5 -6.234375 2.140625 C-3.87710195 0.40976018 -2.87529794 -0.04492653 0 0 Z " fill="#38519D" transform="translate(368,287.5)"/>
<path d="M0 0 C3.3656087 0.28046739 4.70154293 0.68467515 7.06054688 3.17700195 C9.12033372 6.17515342 9.9390667 8.45863629 10.78125 11.98046875 C11.06379639 13.13595215 11.34634277 14.29143555 11.63745117 15.48193359 C11.92209229 16.70477051 12.2067334 17.92760742 12.5 19.1875 C12.95499878 21.07202881 12.95499878 21.07202881 13.41918945 22.99462891 C15.25472842 30.6480262 17.00554131 38.32017379 18.64355469 46.01831055 C19.63174997 50.59655225 20.87412905 55.02242693 22.25 59.5 C24.30164044 66.5341958 25.68693707 72.62612586 22.3125 79.375 C17.84550298 84.44564526 12.79389839 87.32696368 6.8125 90.25 C6.08869141 90.61351562 5.36488281 90.97703125 4.61914062 91.3515625 C-0.7324953 94 -0.7324953 94 -3 94 C-3.7318231 85.21812274 0.30038338 79.54563327 5.6328125 72.859375 C10.42745379 66.33866284 9.51897455 59.32273827 8.58789062 51.56738281 C8.02695123 47.90912645 7.40238907 44.26803688 6.75 40.625 C6.52546143 39.32457764 6.30092285 38.02415527 6.06958008 36.68432617 C4.5035469 27.63240864 2.87147775 18.59025772 1.16894531 9.56298828 C1.01393555 8.73395996 0.85892578 7.90493164 0.69921875 7.05078125 C0.49558716 5.97824097 0.49558716 5.97824097 0.2878418 4.8840332 C0 3 0 3 0 0 Z " fill="#F5DE0B" transform="translate(396,76)"/>
<path d="M0 0 C-1.89247643 1.48362718 -3.78855366 2.96218546 -5.6875 4.4375 C-6.26532227 4.88907471 -6.84314453 5.34064941 -7.43847656 5.8059082 C-10.46081689 8.14205808 -13.50076691 10.36763311 -16.72265625 12.421875 C-17.60981323 12.9953064 -17.60981323 12.9953064 -18.51489258 13.58032227 C-20.1709951 14.63708672 -21.84298722 15.66882586 -23.515625 16.69921875 C-26.82176104 19.76103341 -26.77863964 21.55157439 -27 26 C-26.08987458 29.46274586 -26.08987458 29.46274586 -24.5 32.90234375 C-24.09288033 33.85581696 -24.09288033 33.85581696 -23.67753601 34.82855225 C-22.80057575 36.87200261 -21.90059983 38.9043735 -21 40.9375 C-20.39532212 42.33696953 -19.79221582 43.73711914 -19.19067383 45.13793945 C-16.6955188 50.92901783 -14.14133862 56.69363302 -11.57421875 62.453125 C-11.24615234 63.19183838 -10.91808594 63.93055176 -10.58007812 64.69165039 C-9.75665795 66.53285934 -8.91620306 68.36642482 -8.07421875 70.19921875 C-7 73 -7 73 -7 77 C-8.26418246 77.69965443 -9.53665402 78.38434763 -10.8125 79.0625 C-11.52019531 79.44535156 -12.22789062 79.82820313 -12.95703125 80.22265625 C-15 81 -15 81 -18 80 C-18.99942017 78.33668518 -18.99942017 78.33668518 -19.88525391 76.15454102 C-20.2221524 75.3402211 -20.5590509 74.52590118 -20.90615845 73.68690491 C-21.25939178 72.80151535 -21.61262512 71.91612579 -21.9765625 71.00390625 C-22.34727875 70.1000267 -22.717995 69.19614716 -23.09994507 68.26487732 C-24.28537134 65.36820491 -25.45541294 62.4655993 -26.625 59.5625 C-27.42084784 57.60830533 -28.21771025 55.65452352 -29.015625 53.70117188 C-30.77156231 49.40140876 -32.51741295 45.09769199 -34.25454712 40.79029846 C-34.78922383 39.50620537 -35.37794305 38.2441139 -36 37 C-36.77529506 28.03980428 -36.93823817 20.250556 -31 13 C-25.37943031 7.37943031 -17.42890136 4.68412103 -10.1875 1.6875 C-9.5289502 1.4085791 -8.87040039 1.1296582 -8.19189453 0.84228516 C-3.34928083 -1.11642694 -3.34928083 -1.11642694 0 0 Z " fill="#56B4E9" transform="translate(212,360)"/>
<path d="M0 0 C15.84 0 31.68 0 48 0 C48 5.28 48 10.56 48 16 C32.16 16 16.32 16 0 16 C0 10.72 0 5.44 0 0 Z " fill="#FBBC04" transform="translate(64,240)"/>
<path d="M0 0 C0.48906604 6.6023915 -0.37934532 12.33845742 -4 18 C-9.21647406 23.39572065 -15.28905702 27.32489013 -21.75 31.0625 C-22.58660156 31.57232422 -23.42320312 32.08214844 -24.28515625 32.60742188 C-25.49751953 33.31415039 -25.49751953 33.31415039 -26.734375 34.03515625 C-27.45850586 34.4619165 -28.18263672 34.88867676 -28.92871094 35.32836914 C-31 36 -31 36 -33.15332031 35.29077148 C-36.00604654 33.29680486 -36.8360008 31.24694513 -38 28 C-38 24.375 -38 24.375 -37 21 C-33.48552027 17.78513355 -29.58831435 15.48677537 -25.45703125 13.14453125 C-24.84736008 12.79742599 -24.2376889 12.45032074 -23.60954285 12.09269714 C-21.67948209 10.99521101 -19.74604122 9.90384015 -17.8125 8.8125 C-16.50303489 8.06874714 -15.19378791 7.3246101 -13.88476562 6.58007812 C-2.29894511 0 -2.29894511 0 0 0 Z " fill="#F6DE0B" transform="translate(480,231)"/>
<path d="M0 0 C5.45780927 0.38984352 8.15539941 2.15539941 12 6 C14.3135101 9.51015325 15.09957751 12.26484906 15.375 16.375 C15.77780262 21.43145847 17.80898881 25.10318882 21 29 C21.66 29.33 22.32 29.66 23 30 C23 35.61 23 41.22 23 47 C16.76805356 45.44201339 11.94269592 41.11007983 8.5625 35.625 C6.39134975 30.83542391 6.69084275 25.67488819 6.57470703 20.51586914 C6.30858102 14.23846673 4.46335734 9.67261362 1.27734375 4.22265625 C0 2 0 2 0 0 Z " fill="#CA5145" transform="translate(393,407)"/>
<path d="M0 0 C1.85625 0.2475 1.85625 0.2475 3.75 0.5 C13.20916207 1.5378391 22.56383771 1.04020687 32 0 C31.97183902 6.20949521 31.00236636 10.12657265 26.59765625 14.625 C22.54541164 18.11250637 18.39469346 18.4455696 13.2109375 18.31640625 C8.63479575 17.66151671 5.92334676 14.87343612 2.6875 11.8125 C0.38421144 7.97368574 0.19217005 4.41030263 0 0 Z " fill="#E09532" transform="translate(240,174)"/>
<path d="M0 0 C1.60546875 2.1875 1.60546875 2.1875 3.1875 5 C3.71730469 5.928125 4.24710938 6.85625 4.79296875 7.8125 C5.19128906 8.534375 5.58960938 9.25625 6 10 C5.51917969 10.51046875 5.03835937 11.0209375 4.54296875 11.546875 C2.48262506 14.82256066 2.49039226 17.40752719 2.3125 21.25 C2.24675781 22.51328125 2.18101562 23.7765625 2.11328125 25.078125 C2.07589844 26.04234375 2.03851563 27.0065625 2 28 C-7.72805434 25.20035645 -14.55632377 18.32041571 -20 10 C-17.28404014 6.75482737 -13.72581997 5.14105304 -10 3.3125 C-9.3709375 2.99216797 -8.741875 2.67183594 -8.09375 2.34179688 C-5.20556107 0.90688098 -3.26753139 0 0 0 Z " fill="#F6654F" transform="translate(222,447)"/>
<path d="M0 0 C12.21 0 24.42 0 37 0 C37 2.64 37 5.28 37 8 C32.64596135 8.08755672 28.29215123 8.14057969 23.9375 8.1875 C22.09381836 8.22520508 22.09381836 8.22520508 20.21289062 8.26367188 C12.74624288 8.32404908 7.0607581 8.27480492 1.0625 3.4375 C0 2 0 2 0 0 Z " fill="#F9E008" transform="translate(75,240)"/>
<path d="M0 0 C1.875 0.53125 1.875 0.53125 3.875 2.15625 C5.30848212 5.56077003 5.38861669 7.87173107 4.875 11.53125 C2.8125 14.46875 2.8125 14.46875 -0.125 16.53125 C-4.12307408 17.16252485 -6.13235985 17.21042484 -9.5 14.90625 C-11.51006043 11.96846938 -12.05233979 10.0916004 -12.125 6.53125 C-9.37314523 0.4771695 -6.28689005 -1.01699692 0 0 Z " fill="#38519C" transform="translate(47.125,143.46875)"/>
<path d="M0 0 C2.23918419 1.8057937 2.84945187 3.08353828 3.3125 5.90234375 C3.52133602 9.40687323 3.32891469 11.45180884 1.5 14.5 C-2.04017056 16.62410234 -4.97481725 16.7835909 -9 16 C-11.5 14.5625 -11.5 14.5625 -13 12 C-13.48207192 8.93025468 -13.62382717 6.05169509 -13 3 C-9.39016411 -1.62016896 -5.38837077 -1.25087179 0 0 Z " fill="#38509D" transform="translate(397,235)"/>
<path d="M0 0 C2.5 1.5 2.5 1.5 4 4 C4.791013 8.02098277 4.62153384 10.96411027 2.5 14.5 C-1.03588973 16.62153384 -3.97901723 16.791013 -8 16 C-10.5 14.5 -10.5 14.5 -12 12 C-12.791013 7.97901723 -12.62153384 5.03588973 -10.5 1.5 C-6.96411027 -0.62153384 -4.02098277 -0.791013 0 0 Z " fill="#38519D" transform="translate(396,24)"/>
<path d="M0 0 C2.5 1.5 2.5 1.5 4 4 C4.791013 8.02098277 4.62153384 10.96411027 2.5 14.5 C-1.03588973 16.62153384 -3.97901723 16.791013 -8 16 C-10.5 14.5 -10.5 14.5 -12 12 C-12.791013 7.97901723 -12.62153384 5.03588973 -10.5 1.5 C-6.96411027 -0.62153384 -4.02098277 -0.791013 0 0 Z " fill="#38519D" transform="translate(36,16)"/>
<path d="M0 0 C4.0743356 0.84881992 5.54405875 2.30225596 8 5.625 C8.625 8.625 8.625 8.625 8 11.625 C5.54405875 14.94774404 4.0743356 16.40118008 0 17.25 C-4.0743356 16.40118008 -5.54405875 14.94774404 -8 11.625 C-8.625 8.625 -8.625 8.625 -8 5.625 C-5.54405875 2.30225596 -4.0743356 0.84881992 0 0 Z " fill="#F2DB0E" transform="translate(472,87.375)"/>
<path d="M0 0 C2.66589042 0.54323805 3.75768995 0.96351964 5.875 2.75 C7.17919556 5.76595223 7.28221219 7.80480247 6.875 11.0625 C5.875 13.375 5.875 13.375 3.875 15.0625 C1.14277446 16.03238093 -1.2381276 16.38825603 -4.125 16.0625 C-7.60804057 13.66790961 -8.8857855 12.21072958 -9.75 8.0625 C-8.61022637 2.59158656 -5.66448142 -0.43894505 0 0 Z " fill="#F2DB0D" transform="translate(105.125,311.9375)"/>
<path d="M0 0 C2.66589042 0.54323805 3.75768995 0.96351964 5.875 2.75 C7.17919556 5.76595223 7.28221219 7.80480247 6.875 11.0625 C5.875 13.375 5.875 13.375 3.875 15.0625 C1.14277446 16.03238093 -1.2381276 16.38825603 -4.125 16.0625 C-7.60804057 13.66790961 -8.8857855 12.21072958 -9.75 8.0625 C-8.61022637 2.59158656 -5.66448142 -0.43894505 0 0 Z " fill="#F2DB0D" transform="translate(41.125,287.9375)"/>
<path d="M0 0 C2.875 1.5 2.875 1.5 5 4 C5.71730941 6.8229596 5.71730941 9.1770404 5 12 C2.42627616 15.02791041 0.84753406 15.86162709 -3.0625 16.5 C-6 16 -6 16 -8.375 14.5 C-10.65416433 10.99359333 -10.81753559 8.07099353 -10 4 C-7.30203057 -0.15072221 -4.80768487 -0.78492814 0 0 Z " fill="#F5BA09" transform="translate(457,320)"/>
<path d="M0 0 C0.99 0.33 1.98 0.66 3 1 C-2.30813581 5.29168428 -7.92919433 8.95110459 -13.75 12.5 C-14.49499756 12.96970215 -15.23999512 13.4394043 -16.00756836 13.92333984 C-16.72178955 14.3508252 -17.43601074 14.77831055 -18.171875 15.21875 C-18.8122168 15.60998047 -19.45255859 16.00121094 -20.11230469 16.40429688 C-22 17 -22 17 -24.12988281 16.28710938 C-26.93881122 14.35386257 -27.77157435 12.1324854 -29 9 C-29.1875 6.125 -29.1875 6.125 -29 4 C-28.54625 4.66 -28.0925 5.32 -27.625 6 C-24.22693262 8.58900372 -22.06847862 8.68093386 -17.87109375 8.53125 C-11.31088019 7.31738735 -5.49136046 3.66090697 0 0 Z " fill="#F3B90A" transform="translate(471,250)"/>
<path d="M0 0 C-0.33 2.97 -0.66 5.94 -1 9 C-6.06057937 7.41384826 -10.57595309 5.996935 -15 3 C-10.32377925 0.19426755 -5.34965424 0 0 0 Z " fill="#F3B60B" transform="translate(272,174)"/>
<path d="M0 0 C3.00489727 0.26129542 5.30440251 0.55945492 7.875 2.1875 C9.49664405 4.80014875 9.20031953 6.99520702 9 10 C4.12637153 9.54663921 1.60957611 8.2910841 -2 5 C-1.125 1.125 -1.125 1.125 0 0 Z " fill="#F6DD0B" transform="translate(453,320)"/>
<path d="M0 0 C0.598125 0.763125 1.19625 1.52625 1.8125 2.3125 C5.21511548 6.63210213 5.21511548 6.63210213 10 9 C10 9.66 10 10.32 10 11 C3.59296098 10.51644989 3.59296098 10.51644989 1.0625 8.3125 C-0.27148038 5.40913094 -0.21536552 3.15869424 0 0 Z " fill="#ECB510" transform="translate(96,317)"/>
<path d="M0 0 C0.598125 0.763125 1.19625 1.52625 1.8125 2.3125 C5.21511548 6.63210213 5.21511548 6.63210213 10 9 C10 9.66 10 10.32 10 11 C3.59296098 10.51644989 3.59296098 10.51644989 1.0625 8.3125 C-0.27148038 5.40913094 -0.21536552 3.15869424 0 0 Z " fill="#ECB510" transform="translate(32,293)"/>
<path d="M0 0 C0.556875 0.7425 1.11375 1.485 1.6875 2.25 C3.93727787 4.92541152 6.2309174 6.88675275 9 9 C9.66 9.66 10.32 10.32 11 11 C6.98313013 11.46707789 5.43498188 11.32150834 2.125 8.875 C-0.32150834 5.56501812 -0.46707789 4.01686987 0 0 Z " fill="#EAB311" transform="translate(464,93)"/>
</svg>
