<?xml version="1.0" encoding="UTF-8"?>
<svg version="1.1" xmlns="http://www.w3.org/2000/svg" width="512" height="512">
<path d="M0 0 C4.98601409 0.86841715 8.12458087 3.68183967 12.046875 6.76171875 C13.74797483 8.05693982 15.44981529 9.35118866 17.15234375 10.64453125 C18.01134277 11.30356445 18.8703418 11.96259766 19.75537109 12.64160156 C23.57269939 15.54438454 27.46222099 18.34254906 31.359375 21.13671875 C32.85170443 22.21204265 34.34389183 23.28756367 35.8359375 24.36328125 C37.32283021 25.43371386 38.8098093 26.50402648 40.296875 27.57421875 C50.3032007 34.77544219 60.27627006 42.01677774 70.19116211 49.34350586 C75.53523116 53.28828916 80.90589045 57.19384283 86.296875 61.07421875 C93.29902742 66.11429694 100.25300756 71.2163526 107.19140625 76.34375 C112.53545176 80.28837279 117.90598281 84.19390931 123.296875 88.07421875 C130.29902742 93.11429694 137.25300756 98.2163526 144.19140625 103.34375 C149.53545176 107.28837279 154.90598281 111.19390931 160.296875 115.07421875 C167.29902742 120.11429694 174.25300756 125.2163526 181.19140625 130.34375 C187.26453706 134.82653559 193.37659987 139.2527659 199.50317383 143.66210938 C205.98458569 148.33334582 212.41922938 153.06661723 218.84179688 157.81835938 C219.58365234 158.36685547 220.32550781 158.91535156 221.08984375 159.48046875 C221.7967334 160.00898438 222.50362305 160.5375 223.23193359 161.08203125 C224.58039025 162.05646576 225.95849338 162.99145838 227.36572266 163.87890625 C230.40927687 165.82380785 232.10831331 167.11116071 233.48828125 170.5 C233.2392506 174.49973724 231.64226536 176.72470337 229.234375 179.76171875 C228.79552979 180.34397217 228.35668457 180.92622559 227.90454102 181.52612305 C226.92716295 182.82274098 225.94294513 184.11422226 224.953125 185.40136719 C222.46618127 188.66401447 220.05494816 191.98117479 217.63305664 195.29223633 C215.79573057 197.8028785 213.95350456 200.3097315 212.10546875 202.8125 C211.32901001 203.86497925 211.32901001 203.86497925 210.53686523 204.9387207 C209.296875 206.57421875 209.296875 206.57421875 208.296875 207.57421875 C202.96416601 208.22131648 200.11145524 206.55257979 196.046875 203.38671875 C194.82188705 202.47229113 193.59661152 201.55824868 192.37109375 200.64453125 C191.71931152 200.15114258 191.0675293 199.65775391 190.39599609 199.14941406 C186.59274401 196.2954268 182.72009394 193.5371573 178.859375 190.76171875 C176.74629196 189.23405389 174.63395338 187.70536472 172.52172852 186.17651367 C169.45328606 183.9666829 166.37389503 181.7720902 163.296875 179.57421875 C163.296875 209.27421875 163.296875 238.97421875 163.296875 269.57421875 C192.7948254 269.41610526 192.7948254 269.41610526 222.29248047 269.21386719 C228.02368164 269.19580078 228.02368164 269.19580078 230.71463013 269.19244385 C232.57672967 269.18633895 234.43881432 269.17234881 236.30081177 269.1519165 C250.89975643 268.99985532 261.06379523 269.61923236 272.09375 280.12890625 C278.86587784 287.64548786 280.43751506 294.58944917 280.50561523 304.46679688 C280.51539902 305.3649411 280.5251828 306.26308533 280.53526306 307.18844604 C280.5651723 310.16077202 280.58659527 313.13305293 280.60546875 316.10546875 C280.61204058 317.12388351 280.6186124 318.14229828 280.62538338 319.1915741 C280.65796425 324.58701183 280.68241312 329.98242999 280.7019043 335.37792969 C280.71968028 339.82809464 280.75444337 344.27762153 280.80444336 348.72753906 C280.86488611 354.11389386 280.89541358 359.49965952 280.90507698 364.88633728 C280.91359498 366.93072873 280.93232185 368.975106 280.9618206 371.01930237 C281.14309833 384.30128459 280.72598014 394.04746152 271.734375 404.57421875 C270.93 405.23421875 270.125625 405.89421875 269.296875 406.57421875 C268.554375 407.25484375 267.811875 407.93546875 267.046875 408.63671875 C258.22313524 414.85344449 249.1823661 415.73765435 238.67773438 415.68774414 C237.44703217 415.68796318 237.44703217 415.68796318 236.19146729 415.68818665 C233.5078253 415.68749581 230.8242547 415.67974264 228.140625 415.671875 C226.26875852 415.67000787 224.39689156 415.66858536 222.52502441 415.66758728 C217.61945221 415.66378534 212.71391003 415.65397507 207.80834961 415.6428833 C201.91113912 415.63081159 196.01391855 415.62625587 190.11669922 415.62042999 C181.17673699 415.61076192 172.23684052 415.59158915 163.296875 415.57421875 C163.296875 435.37421875 163.296875 455.17421875 163.296875 475.57421875 C170.226875 475.57421875 177.156875 475.57421875 184.296875 475.57421875 C189.296875 479.57421875 189.296875 479.57421875 189.9609375 481.79296875 C189.94160156 482.9221875 189.94160156 482.9221875 189.921875 484.07421875 C189.93476563 484.82703125 189.94765625 485.57984375 189.9609375 486.35546875 C188.94962714 489.73443513 187.24936175 490.69856731 184.296875 492.57421875 C181.37520687 492.96656548 178.83209506 493.13213209 175.9140625 493.10766602 C175.08255676 493.11628159 174.25105103 493.12489716 173.39434814 493.1337738 C170.65320469 493.15642658 167.91308407 493.14969683 165.171875 493.140625 C163.26285498 493.14586062 161.35383756 493.15213688 159.44482422 493.15940857 C155.44681614 493.16981128 151.44916402 493.16525273 147.45117188 493.15063477 C142.32953046 493.13344054 137.20901022 493.15695068 132.0874939 493.19212437 C128.14632747 493.21409072 124.2054297 493.21265885 120.26422119 493.20435905 C118.37598439 493.20353924 116.48772793 493.21040835 114.59954834 493.22513008 C111.95889451 493.24256377 109.32026029 493.22804502 106.6796875 493.20532227 C105.90135559 493.21701447 105.12302368 493.22870667 104.32110596 493.24075317 C100.34222716 493.17114025 98.48985198 492.72425594 95.31201172 490.25352478 C93.296875 487.57421875 93.296875 487.57421875 92.671875 484.07421875 C93.296875 480.57421875 93.296875 480.57421875 98.296875 475.57421875 C105.226875 475.57421875 112.156875 475.57421875 119.296875 475.57421875 C119.296875 455.77421875 119.296875 435.97421875 119.296875 415.57421875 C110.92666992 415.60040283 102.55646484 415.62658691 93.93261719 415.65356445 C67.1673223 415.73377256 40.40203067 415.78941307 13.63664745 415.8295454 C9.48090919 415.83579912 5.3251713 415.84227071 1.16943359 415.84887695 C0.34208254 415.85018851 -0.48526851 415.85150006 -1.3376908 415.85285135 C-14.74338795 415.87462252 -28.14897817 415.91405341 -41.55461183 415.95998273 C-55.30461536 416.00669986 -69.0545628 416.03450408 -82.80464244 416.04466122 C-91.29285879 416.05153027 -99.78077291 416.07324421 -108.26889625 416.11380108 C-114.08534848 416.14018097 -119.90164391 416.1482306 -125.71815166 416.14172564 C-129.07686462 416.13851512 -132.43462098 416.14623109 -135.79331398 416.17024612 C-139.43134215 416.19499106 -143.0680595 416.18919022 -146.70611572 416.17549133 C-147.77225703 416.19005554 -148.83839835 416.20461975 -149.93684697 416.21962529 C-156.92250242 416.14814168 -156.92250242 416.14814168 -160.35800171 413.62232208 C-162.22273498 409.3967617 -162.26225955 405.77840071 -162.22210693 401.20329285 C-162.22960819 400.25572013 -162.23710944 399.30814741 -162.244838 398.33186036 C-162.26514723 395.15485616 -162.25700596 391.97856343 -162.24902344 388.80151367 C-162.25775666 386.52493584 -162.26824156 384.24836414 -162.28034973 381.97180176 C-162.3082608 375.7883621 -162.31161328 369.60512223 -162.31062984 363.42162871 C-162.31375453 356.9606716 -162.33936351 350.49980506 -162.36260986 344.03889465 C-162.39859285 333.19364942 -162.4206805 322.34846975 -162.43212891 311.50317383 C-162.44395808 300.33321728 -162.4641561 289.16332749 -162.49560547 277.9934082 C-162.49850962 276.96038466 -162.49850962 276.96038466 -162.50147244 275.90649196 C-162.51123706 272.45152427 -162.52116616 268.99655708 -162.53117704 265.54159009 C-162.61399532 236.88583409 -162.66768742 208.23007033 -162.703125 179.57421875 C-163.24872291 179.97645251 -163.79432081 180.37868628 -164.35645199 180.79310894 C-166.85268266 182.63329257 -169.34906955 184.47326417 -171.84545898 186.31323242 C-172.70372032 186.94597832 -173.56198166 187.57872421 -174.44625092 188.23064423 C-180.20248965 192.47298811 -185.96742608 196.70183755 -191.765625 200.88671875 C-192.52166016 201.43521484 -193.27769531 201.98371094 -194.05664062 202.54882812 C-195.13655273 203.3290332 -195.13655273 203.3290332 -196.23828125 204.125 C-197.17232788 204.80042847 -197.17232788 204.80042847 -198.12524414 205.48950195 C-201.44026673 207.76841969 -203.68490421 208.19203236 -207.703125 207.57421875 C-210.00860096 205.57576935 -211.61719618 203.1473587 -213.328125 200.63671875 C-213.83375977 199.92467285 -214.33939453 199.21262695 -214.86035156 198.47900391 C-215.93251634 196.96588412 -216.99677553 195.44713653 -218.05371094 193.92333984 C-219.71154513 191.56222667 -221.42054327 189.24771512 -223.1484375 186.9375 C-224.25073008 185.44194408 -225.35231419 183.94586567 -226.453125 182.44921875 C-227.24130615 181.40326538 -227.24130615 181.40326538 -228.04541016 180.33618164 C-230.30308234 177.20128369 -231.61113816 175.15222561 -232.2265625 171.28515625 C-231.61924981 168.13982037 -231.05559842 167.29375829 -228.578125 165.32421875 C-227.47210938 164.43863281 -227.47210938 164.43863281 -226.34375 163.53515625 C-221.51688546 159.95070951 -216.63491241 156.45510526 -211.71728516 152.99707031 C-208.13210529 150.46441234 -204.57386269 147.89452949 -201.015625 145.32421875 C-200.26104004 144.77942871 -199.50645508 144.23463867 -198.72900391 143.67333984 C-192.39608223 139.09267319 -186.10456195 134.4570559 -179.81860352 129.81225586 C-173.72761209 125.31630105 -167.60329871 120.86851511 -161.45507812 116.45117188 C-160.06029213 115.44795213 -158.68159056 114.42212564 -157.31665039 113.37866211 C-155.18002884 111.9034851 -153.16944566 110.76986624 -150.86889648 109.59985352 C-145.68273851 106.74392828 -140.78541857 103.92689634 -138.88299561 98.03366089 C-137.64943729 90.68634526 -137.9970472 83.30151966 -138.265625 75.88671875 C-138.29268249 73.62442074 -138.31292796 71.36203042 -138.32617188 69.09960938 C-138.37316606 63.58762744 -138.50470492 58.08271976 -138.703125 52.57421875 C-139.39019531 52.59742188 -140.07726562 52.620625 -140.78515625 52.64453125 C-141.68621094 52.66257813 -142.58726562 52.680625 -143.515625 52.69921875 C-144.40894531 52.72242188 -145.30226563 52.745625 -146.22265625 52.76953125 C-148.703125 52.57421875 -148.703125 52.57421875 -151.703125 50.57421875 C-152.07543945 47.44140625 -152.07543945 47.44140625 -152.06640625 43.44921875 C-152.06715401 42.39516846 -152.06715401 42.39516846 -152.06791687 41.31982422 C-152.06557561 39.8336301 -152.05584388 38.34743208 -152.03930664 36.86132812 C-152.01571565 34.5829737 -152.01874434 32.30578922 -152.02539062 30.02734375 C-151.98219756 18.85329131 -151.98219756 18.85329131 -149.703125 16.57421875 C-146.97307377 16.3756635 -144.34445768 16.30150095 -141.61328125 16.31542969 C-140.35945145 16.31017273 -140.35945145 16.31017273 -139.08029175 16.30480957 C-136.30865246 16.29598461 -133.53726703 16.30184407 -130.765625 16.30859375 C-128.84513296 16.30724732 -126.92464126 16.30530697 -125.00415039 16.30279541 C-120.97571574 16.29984311 -116.94736968 16.30414519 -112.91894531 16.31347656 C-107.74682057 16.32487115 -102.57490338 16.31831224 -97.40278625 16.30633163 C-93.43605984 16.29911589 -89.4693829 16.30139965 -85.50265503 16.30658722 C-83.59520442 16.30792451 -81.68774937 16.30627325 -79.78030396 16.30162811 C-77.11773728 16.29656756 -74.45551004 16.3042664 -71.79296875 16.31542969 C-70.99913788 16.31138123 -70.20530701 16.30733276 -69.38742065 16.30316162 C-63.93165328 16.34569047 -63.93165328 16.34569047 -61.703125 18.57421875 C-61.47607422 21.09619141 -61.47607422 21.09619141 -61.5078125 24.23828125 C-61.51748047 25.92050781 -61.51748047 25.92050781 -61.52734375 27.63671875 C-61.55248047 29.40015625 -61.55248047 29.40015625 -61.578125 31.19921875 C-61.58714844 32.38257812 -61.59617188 33.5659375 -61.60546875 34.78515625 C-61.62909688 37.71504398 -61.66203986 40.64453215 -61.703125 43.57421875 C-61.25211426 43.24848877 -60.80110352 42.92275879 -60.33642578 42.5871582 C-58.9639593 41.59593241 -57.5914809 40.60472312 -56.21899414 39.61352539 C-54.60090732 38.44486123 -52.98290853 37.27607519 -51.36499023 36.10717773 C-47.30131106 33.17153673 -43.23660186 30.23736591 -39.16796875 27.30859375 C-21.70037469 14.88141947 -21.70037469 14.88141947 -4.62744141 1.92895508 C-2.703125 0.57421875 -2.703125 0.57421875 0 0 Z " fill="#E1EEFA" transform="translate(231.703125,9.42578125)"/>
<path d="M0 0 C0.90376509 -0.00367669 1.80753018 -0.00735338 2.73868209 -0.01114148 C5.76775449 -0.02215652 8.79679255 -0.02601845 11.82588196 -0.02983093 C13.9975597 -0.03609719 16.16923637 -0.04274413 18.34091187 -0.04974365 C25.47301998 -0.07076572 32.60512826 -0.08114375 39.73725891 -0.09111023 C42.19398828 -0.09515836 44.65071753 -0.0992753 47.10744667 -0.10346031 C58.64900814 -0.12250725 70.19056322 -0.1367398 81.73213738 -0.14507228 C95.04916709 -0.15484571 108.36598061 -0.18117015 121.68295544 -0.22157317 C131.98036867 -0.25174168 142.27773428 -0.26654183 152.57519084 -0.26985329 C158.72355927 -0.27220275 164.87175006 -0.28115015 171.02007103 -0.30631447 C176.80590382 -0.3296131 182.59144224 -0.33382102 188.3773098 -0.32355309 C190.49686157 -0.32305807 192.61642792 -0.3293683 194.73593521 -0.34310913 C209.4327895 -0.43303295 219.72952265 0.12030528 230.83491516 10.70185852 C237.607043 18.21844013 239.17868022 25.16240144 239.2467804 35.03974915 C239.25656418 35.93789337 239.26634796 36.8360376 239.27642822 37.76139832 C239.30633746 40.73372429 239.32776043 43.7060052 239.34663391 46.67842102 C239.35320574 47.69683578 239.35977757 48.71525055 239.36654854 49.76452637 C239.39912941 55.1599641 239.42357828 60.55538226 239.44306946 65.95088196 C239.46084544 70.40104691 239.49560853 74.8505738 239.54560852 79.30049133 C239.60605127 84.68684613 239.63657874 90.07261179 239.64624214 95.45928955 C239.65476015 97.503681 239.67348701 99.54805827 239.70298576 101.59225464 C239.88426349 114.87423686 239.4671453 124.62041379 230.47554016 135.14717102 C229.67116516 135.80717102 228.86679016 136.46717102 228.03804016 137.14717102 C227.29554016 137.82779602 226.55304016 138.50842102 225.78804016 139.20967102 C216.96430041 145.42639676 207.92353126 146.31060662 197.41889954 146.26069641 C196.18819733 146.26091545 196.18819733 146.26091545 194.93263245 146.26113892 C192.24899046 146.26044808 189.56541986 146.25269491 186.88179016 146.24482727 C185.00992368 146.24296014 183.13805672 146.24153763 181.26618958 146.24053955 C176.36061737 146.23673761 171.45507519 146.22692734 166.54951477 146.21583557 C160.65230428 146.20376386 154.75508371 146.19920815 148.85786438 146.19338226 C139.91790215 146.1837142 130.97800568 146.16454142 122.03804016 146.14717102 C122.03804016 165.94717102 122.03804016 185.74717102 122.03804016 206.14717102 C128.96804016 206.14717102 135.89804016 206.14717102 143.03804016 206.14717102 C148.03804016 210.14717102 148.03804016 210.14717102 148.70210266 212.36592102 C148.68921204 213.11873352 148.67632141 213.87154602 148.66304016 214.64717102 C148.67593079 215.39998352 148.68882141 216.15279602 148.70210266 216.92842102 C147.6907923 220.3073874 145.99052691 221.27151958 143.03804016 223.14717102 C140.11637203 223.53951775 137.57326022 223.70508436 134.65522766 223.68061829 C133.82372192 223.68923386 132.99221619 223.69784943 132.13551331 223.70672607 C129.39436985 223.72937885 126.65424923 223.7226491 123.91304016 223.71357727 C122.00402015 223.71881289 120.09500273 223.72508915 118.18598938 223.73236084 C114.1879813 223.74276355 110.19032918 223.738205 106.19233704 223.72358704 C101.07069562 223.70639281 95.95017538 223.72990295 90.82865906 223.76507664 C86.88749264 223.787043 82.94659486 223.78561112 79.00538635 223.77731133 C77.11714955 223.77649151 75.22889309 223.78336062 73.3407135 223.79808235 C70.70005967 223.81551604 68.06142545 223.80099729 65.42085266 223.77827454 C64.2533548 223.79581284 64.2533548 223.79581284 63.06227112 223.81370544 C59.08339232 223.74409252 57.23101714 223.29720821 54.05317688 220.82647705 C52.03804016 218.14717102 52.03804016 218.14717102 51.41304016 214.64717102 C52.03804016 211.14717102 52.03804016 211.14717102 57.03804016 206.14717102 C63.96804016 206.14717102 70.89804016 206.14717102 78.03804016 206.14717102 C78.03804016 186.34717102 78.03804016 166.54717102 78.03804016 146.14717102 C71.61657532 146.16457336 71.61657532 146.16457336 65.06538391 146.18232727 C61.57970457 146.18879063 58.094027 146.19420185 54.60834503 146.1989212 C50.9687676 146.20412911 47.32921474 146.21104539 43.68965149 146.22261047 C29.80406832 146.26539785 15.91977549 146.30457315 2.04194641 145.76826477 C0.6997831 145.72234947 0.6997831 145.72234947 -0.66949463 145.67550659 C-14.3552754 145.04801865 -23.47638961 141.31209662 -32.91899109 131.23310852 C-39.9963468 120.5426477 -39.53896541 109.46960049 -39.45805359 97.13935852 C-39.45820885 95.20365851 -39.45970224 93.26795818 -39.46246338 91.33226013 C-39.46384155 87.29272065 -39.45138498 83.25353873 -39.42851257 79.21406555 C-39.40009166 74.05510963 -39.40288355 68.89674525 -39.41560268 63.73774529 C-39.42257989 59.7466991 -39.41474791 55.75578799 -39.40234566 51.76475906 C-39.39785369 49.86309961 -39.39747448 47.96142555 -39.40141106 46.05976486 C-39.40434442 43.39703206 -39.38771708 40.73509571 -39.36601257 38.07246399 C-39.37051422 37.29923798 -39.37501587 36.52601196 -39.37965393 35.72935486 C-39.24240088 25.51750439 -35.24349771 16.84667232 -28.33305359 9.38935852 C-20.10247659 1.78896491 -10.8304531 -0.00237027 0 0 Z " fill="#8AC9FD" transform="translate(272.9619598388672,278.8528289794922)"/>
<path d="M0 0 C4.98601409 0.86841715 8.12458087 3.68183967 12.046875 6.76171875 C13.74797483 8.05693982 15.44981529 9.35118866 17.15234375 10.64453125 C18.01134277 11.30356445 18.8703418 11.96259766 19.75537109 12.64160156 C23.57269939 15.54438454 27.46222099 18.34254906 31.359375 21.13671875 C32.85170443 22.21204265 34.34389183 23.28756367 35.8359375 24.36328125 C37.32283021 25.43371386 38.8098093 26.50402648 40.296875 27.57421875 C50.3032007 34.77544219 60.27627006 42.01677774 70.19116211 49.34350586 C75.53523116 53.28828916 80.90589045 57.19384283 86.296875 61.07421875 C93.29902742 66.11429694 100.25300756 71.2163526 107.19140625 76.34375 C112.53545176 80.28837279 117.90598281 84.19390931 123.296875 88.07421875 C130.29902742 93.11429694 137.25300756 98.2163526 144.19140625 103.34375 C149.53545176 107.28837279 154.90598281 111.19390931 160.296875 115.07421875 C167.29902742 120.11429694 174.25300756 125.2163526 181.19140625 130.34375 C187.26453706 134.82653559 193.37659987 139.2527659 199.50317383 143.66210938 C205.98458569 148.33334582 212.41922938 153.06661723 218.84179688 157.81835938 C219.58365234 158.36685547 220.32550781 158.91535156 221.08984375 159.48046875 C221.7967334 160.00898438 222.50362305 160.5375 223.23193359 161.08203125 C224.58039025 162.05646576 225.95849338 162.99145838 227.36572266 163.87890625 C230.40927687 165.82380785 232.10831331 167.11116071 233.48828125 170.5 C233.2392506 174.49973724 231.64226536 176.72470337 229.234375 179.76171875 C228.79552979 180.34397217 228.35668457 180.92622559 227.90454102 181.52612305 C226.92716295 182.82274098 225.94294513 184.11422226 224.953125 185.40136719 C222.46618127 188.66401447 220.05494816 191.98117479 217.63305664 195.29223633 C215.79573057 197.8028785 213.95350456 200.3097315 212.10546875 202.8125 C211.32901001 203.86497925 211.32901001 203.86497925 210.53686523 204.9387207 C209.296875 206.57421875 209.296875 206.57421875 208.296875 207.57421875 C202.96422797 208.22130896 200.11135964 206.55263761 196.046875 203.38671875 C194.82060998 202.47095569 193.59403106 201.55561285 192.3671875 200.640625 C191.71524414 200.1470752 191.06330078 199.65352539 190.39160156 199.14501953 C186.61230794 196.31098979 182.76026555 193.57734533 178.921875 190.82421875 C176.75031705 189.26112469 174.58151183 187.69465312 172.41894531 186.11914062 C170.94431543 185.04557207 169.46406169 183.97970305 167.97949219 182.91992188 C167.24633789 182.38818359 166.51318359 181.85644531 165.7578125 181.30859375 C165.09313965 180.83131836 164.4284668 180.35404297 163.74365234 179.86230469 C163.26621582 179.43723633 162.7887793 179.01216797 162.296875 178.57421875 C162.296875 177.91421875 162.296875 177.25421875 162.296875 176.57421875 C161.76320313 176.33316406 161.22953125 176.09210938 160.6796875 175.84375 C157.65610542 174.23282512 154.9379128 172.27008386 152.171875 170.26171875 C151.56496826 169.8244043 150.95806152 169.38708984 150.33276367 168.93652344 C149.01276984 167.98481104 147.69371419 167.03179637 146.37548828 166.07763672 C144.2674976 164.55297068 142.15567082 163.03375441 140.04296875 161.515625 C131.45340013 155.33667725 122.91331551 149.0940081 114.40356445 142.80566406 C109.05918025 138.86062225 103.68818988 134.95483244 98.296875 131.07421875 C91.29472258 126.03414056 84.34074244 120.9320849 77.40234375 115.8046875 C72.05829824 111.86006471 66.68776719 107.95452819 61.296875 104.07421875 C55.10033059 99.61400903 48.93712815 95.11160463 42.796875 90.57421875 C35.81017025 85.4130885 28.80725364 80.27573741 21.7434082 75.22045898 C18.20044818 72.68482271 14.68860456 70.12435763 11.234375 67.46875 C10.59927002 66.98954102 9.96416504 66.51033203 9.30981445 66.01660156 C8.12781521 65.12310688 6.95619494 64.2156425 5.79760742 63.29199219 C4.06605532 61.93377377 4.06605532 61.93377377 1.296875 60.57421875 C-2.99952401 61.38310869 -6.02625487 64.19962052 -9.390625 66.88671875 C-14.61266201 70.99829648 -19.92693794 74.95114954 -25.328125 78.82421875 C-31.65212909 83.36478783 -37.94319017 87.945692 -44.203125 92.57421875 C-51.08001407 97.65646568 -57.99345836 102.68424854 -64.93359375 107.6796875 C-70.38396338 111.60813891 -75.79986516 115.58127143 -81.203125 119.57421875 C-88.0801606 124.65626953 -94.99345583 129.68424672 -101.93359375 134.6796875 C-108.18699162 139.18693588 -114.39233779 143.75732973 -120.59106445 148.33935547 C-125.99731551 152.33072606 -131.43466379 156.27614803 -136.890625 160.19921875 C-146.67232184 167.24144655 -156.33936282 174.43075259 -165.8828125 181.79296875 C-175.06461601 188.87285009 -184.34623836 195.77207131 -193.91162109 202.32861328 C-195.57439218 203.48471277 -197.19747794 204.69732717 -198.81640625 205.9140625 C-202.26020401 207.89459572 -203.81159967 208.46794176 -207.703125 207.57421875 C-209.99026216 205.55049231 -211.61490403 203.15072224 -213.328125 200.63671875 C-213.83375977 199.92467285 -214.33939453 199.21262695 -214.86035156 198.47900391 C-215.93251634 196.96588412 -216.99677553 195.44713653 -218.05371094 193.92333984 C-219.71154513 191.56222667 -221.42054327 189.24771512 -223.1484375 186.9375 C-224.25073008 185.44194408 -225.35231419 183.94586567 -226.453125 182.44921875 C-227.24130615 181.40326538 -227.24130615 181.40326538 -228.04541016 180.33618164 C-230.30308234 177.20128369 -231.61113816 175.15222561 -232.2265625 171.28515625 C-231.61924981 168.13982037 -231.05559842 167.29375829 -228.578125 165.32421875 C-227.47210938 164.43863281 -227.47210938 164.43863281 -226.34375 163.53515625 C-221.51688546 159.95070951 -216.63491241 156.45510526 -211.71728516 152.99707031 C-208.13210529 150.46441234 -204.57386269 147.89452949 -201.015625 145.32421875 C-200.26104004 144.77942871 -199.50645508 144.23463867 -198.72900391 143.67333984 C-192.39608223 139.09267319 -186.10456195 134.4570559 -179.81860352 129.81225586 C-173.72761209 125.31630105 -167.60329871 120.86851511 -161.45507812 116.45117188 C-160.06029213 115.44795213 -158.68159056 114.42212564 -157.31665039 113.37866211 C-155.18002884 111.9034851 -153.16944566 110.76986624 -150.86889648 109.59985352 C-145.68273851 106.74392828 -140.78541857 103.92689634 -138.88299561 98.03366089 C-137.64943729 90.68634526 -137.9970472 83.30151966 -138.265625 75.88671875 C-138.29268249 73.62442074 -138.31292796 71.36203042 -138.32617188 69.09960938 C-138.37316606 63.58762744 -138.50470492 58.08271976 -138.703125 52.57421875 C-139.39019531 52.59742188 -140.07726562 52.620625 -140.78515625 52.64453125 C-141.68621094 52.66257813 -142.58726562 52.680625 -143.515625 52.69921875 C-144.40894531 52.72242188 -145.30226563 52.745625 -146.22265625 52.76953125 C-148.703125 52.57421875 -148.703125 52.57421875 -151.703125 50.57421875 C-152.07543945 47.44140625 -152.07543945 47.44140625 -152.06640625 43.44921875 C-152.06715401 42.39516846 -152.06715401 42.39516846 -152.06791687 41.31982422 C-152.06557561 39.8336301 -152.05584388 38.34743208 -152.03930664 36.86132812 C-152.01571565 34.5829737 -152.01874434 32.30578922 -152.02539062 30.02734375 C-151.98219756 18.85329131 -151.98219756 18.85329131 -149.703125 16.57421875 C-146.97307377 16.3756635 -144.34445768 16.30150095 -141.61328125 16.31542969 C-140.35945145 16.31017273 -140.35945145 16.31017273 -139.08029175 16.30480957 C-136.30865246 16.29598461 -133.53726703 16.30184407 -130.765625 16.30859375 C-128.84513296 16.30724732 -126.92464126 16.30530697 -125.00415039 16.30279541 C-120.97571574 16.29984311 -116.94736968 16.30414519 -112.91894531 16.31347656 C-107.74682057 16.32487115 -102.57490338 16.31831224 -97.40278625 16.30633163 C-93.43605984 16.29911589 -89.4693829 16.30139965 -85.50265503 16.30658722 C-83.59520442 16.30792451 -81.68774937 16.30627325 -79.78030396 16.30162811 C-77.11773728 16.29656756 -74.45551004 16.3042664 -71.79296875 16.31542969 C-70.99913788 16.31138123 -70.20530701 16.30733276 -69.38742065 16.30316162 C-63.93165328 16.34569047 -63.93165328 16.34569047 -61.703125 18.57421875 C-61.47607422 21.09619141 -61.47607422 21.09619141 -61.5078125 24.23828125 C-61.51748047 25.92050781 -61.51748047 25.92050781 -61.52734375 27.63671875 C-61.55248047 29.40015625 -61.55248047 29.40015625 -61.578125 31.19921875 C-61.58714844 32.38257812 -61.59617188 33.5659375 -61.60546875 34.78515625 C-61.62909688 37.71504398 -61.66203986 40.64453215 -61.703125 43.57421875 C-61.25211426 43.24848877 -60.80110352 42.92275879 -60.33642578 42.5871582 C-58.9639593 41.59593241 -57.5914809 40.60472312 -56.21899414 39.61352539 C-54.60090732 38.44486123 -52.98290853 37.27607519 -51.36499023 36.10717773 C-47.30131106 33.17153673 -43.23660186 30.23736591 -39.16796875 27.30859375 C-21.70037469 14.88141947 -21.70037469 14.88141947 -4.62744141 1.92895508 C-2.703125 0.57421875 -2.703125 0.57421875 0 0 Z " fill="#FE4D4D" transform="translate(231.703125,9.42578125)"/>
<path d="M0 0 C5.72259975 -0.06500057 11.44506639 -0.11346724 17.16793823 -0.14663696 C19.30235134 -0.16050061 21.43674016 -0.17885142 23.57107544 -0.20175171 C26.53386271 -0.23123203 29.4960681 -0.24121751 32.45898438 -0.24560547 C33.32928284 -0.25789688 34.1995813 -0.27018829 35.09625244 -0.28285217 C38.51723737 -0.27023665 40.9715608 -0.18784574 44.10913086 1.24291992 C46.15890911 3.83394141 46.0216454 5.56580012 45.95507812 8.84423828 C45.9421875 9.9625 45.92929687 11.08076172 45.91601562 12.23291016 C45.8825 13.40015625 45.84898437 14.56740234 45.81445312 15.77001953 C45.79640625 16.94886719 45.77835937 18.12771484 45.75976562 19.34228516 C45.71257172 22.25650879 45.64674389 25.16910984 45.56445312 28.08251953 C44.5524585 28.10439331 44.5524585 28.10439331 43.52001953 28.12670898 C40.40930731 28.20201536 37.29957343 28.29839797 34.18945312 28.39501953 C33.12855469 28.41757812 32.06765625 28.44013672 30.97460938 28.46337891 C20.16213786 28.8282169 10.94097924 30.94161125 2.56445312 38.08251953 C-5.05788807 46.42049538 -7.57451628 54.41359375 -7.61254883 65.55371094 C-7.61912003 66.39508606 -7.62569122 67.23646118 -7.63246155 68.10333252 C-7.65212618 70.88025006 -7.66384332 73.65711362 -7.67382812 76.43408203 C-7.67790365 77.3866325 -7.68197918 78.33918297 -7.68617821 79.3205986 C-7.70701214 84.36477184 -7.72132413 89.4089181 -7.73071289 94.453125 C-7.74175785 99.64121421 -7.77614347 104.82887225 -7.81588459 110.01680946 C-7.84213615 114.02506258 -7.8504124 118.03321437 -7.85399437 122.04154587 C-7.85884005 123.95275146 -7.87039586 125.86395314 -7.88903236 127.77507401 C-8.0194331 142.03623022 -7.34058573 153.15012736 3.06445312 163.91455078 C12.40091181 172.01101105 22.68576622 172.19760339 34.50195312 172.64501953 C35.56736328 172.68820312 36.63277344 172.73138672 37.73046875 172.77587891 C40.34168755 172.88126442 42.95299059 172.98339041 45.56445312 173.08251953 C45.56445312 173.41251953 45.56445312 173.74251953 45.56445312 174.08251953 C8.60445312 174.08251953 -28.35554688 174.08251953 -66.43554688 174.08251953 C-66.51615294 131.57177466 -66.51615294 131.57177466 -66.53320312 113.79931641 C-66.54508446 101.51308529 -66.55907488 89.22688154 -66.58642578 76.94067383 C-66.60633313 67.99391148 -66.619257 59.04717127 -66.62372386 50.10038739 C-66.62633575 45.36123592 -66.63249278 40.6221478 -66.64700699 35.88301659 C-66.66054898 31.42535004 -66.66477639 26.96777313 -66.66176224 22.51008797 C-66.66231392 20.87137236 -66.66631147 19.23265385 -66.67395782 17.59395599 C-66.68386625 15.3615729 -66.68153094 13.12953102 -66.67605591 10.8971405 C-66.67789949 9.64626742 -66.67974308 8.39539434 -66.68164253 7.10661602 C-66.43554688 4.08251953 -66.43554688 4.08251953 -64.43554688 1.08251953 C-62.36082458 0.68379211 -62.36082458 0.68379211 -59.75366211 0.65014648 C-58.7690802 0.63037247 -57.78449829 0.61059845 -56.77008057 0.59022522 C-55.1484903 0.58061012 -55.1484903 0.58061012 -53.49414062 0.57080078 C-51.79798615 0.54360207 -51.79798615 0.54360207 -50.06756592 0.51585388 C-46.3360885 0.46036046 -42.6047954 0.42690291 -38.87304688 0.39501953 C-36.30248099 0.36420617 -33.7319242 0.33262409 -31.16137695 0.30029297 C-24.55209243 0.22225215 -17.94279566 0.16578911 -11.33325195 0.11505127 C-7.55539447 0.08351983 -3.77773798 0.04340567 0 0 Z " fill="#F0BA85" transform="translate(242.435546875,250.91748046875)"/>
<path d="M0 0 C3.17166974 1.41301953 5.86510616 3.26032477 8.625 5.3359375 C9.87493091 6.25269838 11.12493446 7.16936021 12.375 8.0859375 C13.035 8.57449219 13.695 9.06304687 14.375 9.56640625 C17.19423034 11.64345285 20.03961336 13.6832438 22.8840332 15.72558594 C30.74479853 21.37430672 38.54595096 27.10181211 46.33081055 32.85449219 C51.67519475 36.799534 57.04618512 40.70532381 62.4375 44.5859375 C69.43965242 49.62601569 76.39363256 54.72807135 83.33203125 59.85546875 C88.67607676 63.80009154 94.04660781 67.70562806 99.4375 71.5859375 C106.43965242 76.62601569 113.39363256 81.72807135 120.33203125 86.85546875 C125.67607676 90.80009154 131.04660781 94.70562806 136.4375 98.5859375 C143.43965242 103.62601569 150.39363256 108.72807135 157.33203125 113.85546875 C163.40240812 118.33622156 169.50522741 122.76982167 175.6394043 127.1628418 C179.67337644 130.05910669 183.66261416 133.00256234 187.61328125 136.01171875 C188.47115234 136.66011719 189.32902344 137.30851563 190.21289062 137.9765625 C191.86887702 139.23098176 193.51770737 140.4949206 195.15820312 141.76953125 C195.90650391 142.33414063 196.65480469 142.89875 197.42578125 143.48046875 C198.08102783 143.98425049 198.73627441 144.48803223 199.41137695 145.00708008 C201.95373128 146.36081713 203.59537015 146.43757412 206.4375 146.0859375 C208.80885473 143.95672304 208.80885473 143.95672304 210.875 141.0859375 C212.03128906 139.59126953 212.03128906 139.59126953 213.2109375 138.06640625 C213.94570313 137.08285156 214.68046875 136.09929687 215.4375 135.0859375 C216.06914062 134.25707031 216.70078125 133.42820313 217.3515625 132.57421875 C218.72932748 130.75569957 220.0915422 128.9280523 221.4375 127.0859375 C225.83350078 127.58833759 228.34525631 128.90779815 231.4375 132.0859375 C232.33203125 134.84375 232.33203125 134.84375 232.4375 138.0859375 C231.17921694 140.43329686 230.00603558 142.21625075 228.375 144.2734375 C227.93615479 144.85569092 227.49730957 145.43794434 227.04516602 146.0378418 C226.06778795 147.33445973 225.08357013 148.62594101 224.09375 149.91308594 C221.60680627 153.17573322 219.19557316 156.49289354 216.77368164 159.80395508 C214.93635557 162.31459725 213.09412956 164.82145025 211.24609375 167.32421875 C210.46963501 168.376698 210.46963501 168.376698 209.67749023 169.45043945 C208.4375 171.0859375 208.4375 171.0859375 207.4375 172.0859375 C202.10485297 172.73302771 199.25198464 171.06435636 195.1875 167.8984375 C193.96123498 166.98267444 192.73465606 166.0673316 191.5078125 165.15234375 C190.85586914 164.65879395 190.20392578 164.16524414 189.53222656 163.65673828 C185.75293294 160.82270854 181.90089055 158.08906408 178.0625 155.3359375 C175.89094205 153.77284344 173.72213683 152.20637187 171.55957031 150.63085938 C170.08494043 149.55729082 168.60468669 148.4914218 167.12011719 147.43164062 C166.38696289 146.89990234 165.65380859 146.36816406 164.8984375 145.8203125 C164.23376465 145.34303711 163.5690918 144.86576172 162.88427734 144.37402344 C162.40684082 143.94895508 161.9294043 143.52388672 161.4375 143.0859375 C161.4375 142.4259375 161.4375 141.7659375 161.4375 141.0859375 C160.90382813 140.84488281 160.37015625 140.60382813 159.8203125 140.35546875 C156.79673042 138.74454387 154.0785378 136.78180261 151.3125 134.7734375 C150.70559326 134.33612305 150.09868652 133.89880859 149.47338867 133.44824219 C148.15339484 132.49652979 146.83433919 131.54351512 145.51611328 130.58935547 C143.4081226 129.06468943 141.29629582 127.54547316 139.18359375 126.02734375 C130.59402513 119.848396 122.05394051 113.60572685 113.54418945 107.31738281 C108.19980525 103.372341 102.82881488 99.46655119 97.4375 95.5859375 C90.43534758 90.54585931 83.48136744 85.44380365 76.54296875 80.31640625 C71.19892324 76.37178346 65.82839219 72.46624694 60.4375 68.5859375 C54.24095559 64.12572778 48.07775315 59.62332338 41.9375 55.0859375 C34.95079525 49.92480725 27.94787864 44.78745616 20.8840332 39.73217773 C17.34107318 37.19654146 13.82922956 34.63607638 10.375 31.98046875 C9.73989502 31.50125977 9.10479004 31.02205078 8.45043945 30.52832031 C7.26844021 29.63482563 6.09681994 28.72736125 4.93823242 27.80371094 C3.20668032 26.44549252 3.20668032 26.44549252 0.4375 25.0859375 C-3.85889901 25.89482744 -6.88562987 28.71133927 -10.25 31.3984375 C-15.47203701 35.51001523 -20.78631294 39.46286829 -26.1875 43.3359375 C-32.51150409 47.87650658 -38.80256517 52.45741075 -45.0625 57.0859375 C-51.93938907 62.16818443 -58.85283336 67.19596729 -65.79296875 72.19140625 C-71.24333838 76.11985766 -76.65924016 80.09299018 -82.0625 84.0859375 C-88.9395356 89.16798828 -95.85283083 94.19596547 -102.79296875 99.19140625 C-109.04636662 103.69865463 -115.25171279 108.26904848 -121.45043945 112.85107422 C-126.85669051 116.84244481 -132.29403879 120.78786678 -137.75 124.7109375 C-147.53169684 131.7531653 -157.19873782 138.94247134 -166.7421875 146.3046875 C-175.92399101 153.38456884 -185.20561336 160.28379006 -194.77099609 166.84033203 C-196.43376718 167.99643152 -198.05685294 169.20904592 -199.67578125 170.42578125 C-203.11957901 172.40631447 -204.67097467 172.97966051 -208.5625 172.0859375 C-210.84963716 170.06221106 -212.47427903 167.66244099 -214.1875 165.1484375 C-214.69313477 164.4363916 -215.19876953 163.7243457 -215.71972656 162.99072266 C-216.79189134 161.47760287 -217.85615053 159.95885528 -218.91308594 158.43505859 C-220.57092013 156.07394542 -222.27991827 153.75943387 -224.0078125 151.44921875 C-225.11010508 149.95366283 -226.21168919 148.45758442 -227.3125 146.9609375 C-228.10068115 145.91498413 -228.10068115 145.91498413 -228.90478516 144.84790039 C-231.17821743 141.69111872 -232.47473328 139.67266145 -233.05859375 135.76953125 C-232.5625 133.0859375 -232.5625 133.0859375 -229.875 130.2734375 C-226.77220339 128.22442087 -225.11475625 127.64873108 -221.5625 127.0859375 C-220.88703125 128.03855469 -220.2115625 128.99117187 -219.515625 129.97265625 C-218.6146602 131.239638 -217.71361423 132.50656202 -216.8125 133.7734375 C-216.3690625 134.39927734 -215.925625 135.02511719 -215.46875 135.66992188 C-214.58933061 136.90498881 -213.70332769 138.13539657 -212.81054688 139.36083984 C-211.69542165 140.90220817 -210.6184025 142.47097976 -209.546875 144.04296875 C-207.75600619 146.31411258 -207.75600619 146.31411258 -205.18920898 146.37646484 C-202.16692634 146.04218505 -200.94204023 145.31897144 -198.55078125 143.48046875 C-197.42820923 142.63343384 -197.42820923 142.63343384 -196.28295898 141.76928711 C-195.48833252 141.15190674 -194.69370605 140.53452637 -193.875 139.8984375 C-192.16474307 138.60326749 -190.45378914 137.30901742 -188.7421875 136.015625 C-187.4442627 135.0270752 -187.4442627 135.0270752 -186.12011719 134.01855469 C-182.29086092 131.12504642 -178.39907325 128.32175782 -174.5 125.5234375 C-173.00772623 124.44803637 -171.51553881 123.37251541 -170.0234375 122.296875 C-167.79346711 120.6914915 -165.56323764 119.08646836 -163.33300781 117.48144531 C-154.07097805 110.81359456 -144.84665107 104.09916711 -135.66821289 97.31665039 C-129.58705095 92.82777387 -123.46654491 88.39602937 -117.33203125 83.98046875 C-111.88166162 80.05201734 -106.46575984 76.07888482 -101.0625 72.0859375 C-94.1854644 67.00388672 -87.27216917 61.97590953 -80.33203125 56.98046875 C-74.88166038 53.05201645 -69.46582922 49.07879229 -64.0625 45.0859375 C-54.19305912 37.79489938 -44.24939256 30.60929524 -34.28466797 23.44921875 C-32.75929554 22.35311157 -31.2343927 21.2563506 -29.70996094 20.15893555 C-28.20795341 19.0779355 -26.70471787 17.99863948 -25.20019531 16.92114258 C-21.42537644 14.20544854 -17.70722634 11.43995126 -14.05078125 8.56640625 C-13.32713379 8.0031665 -12.60348633 7.43992676 -11.85791016 6.85961914 C-10.48667738 5.78712262 -9.12502313 4.70222642 -7.77490234 3.60327148 C-3.29259949 0.11042254 -3.29259949 0.11042254 0 0 Z " fill="#F33A3A" transform="translate(232.5625,44.9140625)"/>
<path d="M0 0 C0.83144531 0.55945313 1.66289062 1.11890625 2.51953125 1.6953125 C3.39242798 2.27901611 3.39242798 2.27901611 4.28295898 2.87451172 C6.43913228 4.35313613 8.54187664 5.89157293 10.64453125 7.4453125 C11.43150391 8.02023438 12.21847656 8.59515625 13.02929688 9.1875 C15.53054523 11.01739191 18.02571421 12.85530881 20.51953125 14.6953125 C22.11067506 15.86719024 23.70182087 17.03906528 25.29296875 18.2109375 C27.66644757 19.96002315 30.03930843 21.70992427 32.41064453 23.46191406 C37.75546204 27.4080163 43.12742426 31.31412866 48.51953125 35.1953125 C55.52168367 40.23539069 62.47566381 45.33744635 69.4140625 50.46484375 C74.75810801 54.40946654 80.12863906 58.31500306 85.51953125 62.1953125 C92.52168367 67.23539069 99.47566381 72.33744635 106.4140625 77.46484375 C112.48931442 81.949195 118.60324629 86.37735017 124.73242188 90.78759766 C131.12650776 95.39510072 137.47251136 100.06623181 143.80078125 104.76367188 C144.53296875 105.30572266 145.26515625 105.84777344 146.01953125 106.40625 C146.70040802 106.92531921 147.38128479 107.44438843 148.08279419 107.97918701 C150.47479917 109.74645092 150.47479917 109.74645092 153.10446167 111.03167725 C157.28550075 113.34693281 160.0351004 115.06439316 161.43463135 119.77615356 C161.775181 123.66175783 161.80188452 127.48195044 161.71484375 131.375 C161.71864455 132.82969914 161.72686154 134.28439265 161.73922729 135.73904419 C161.76000773 139.5740953 161.7212908 143.4062962 161.66973877 147.2409668 C161.62851828 151.05001981 161.6424958 154.85876609 161.65234375 158.66796875 C161.66186089 165.27795513 161.62677172 171.88663308 161.56801224 178.49633408 C161.5079531 185.46112856 161.50455682 192.42559314 161.51171875 199.390625 C161.51429688 202.79117188 161.516875 206.19171875 161.51953125 209.6953125 C147.32953125 209.6953125 133.13953125 209.6953125 118.51953125 209.6953125 C118.39578125 205.5084375 118.27203125 201.3215625 118.14453125 197.0078125 C118.06259521 195.04001831 118.06259521 195.04001831 117.97900391 193.0324707 C117.85998871 184.74683736 117.85998871 184.74683736 119.74121094 181.74755859 C122.73110642 179.08036108 124.50963061 178.6953125 128.51953125 178.6953125 C128.83149191 170.85356104 129.03683842 163.01647952 129.11281109 155.16929436 C129.15132559 151.52279918 129.22401793 147.88422879 129.38012695 144.24072266 C130.54646456 128.45489358 130.54646456 128.45489358 125.71685791 114.04870605 C121.38750843 109.69027505 116.45688152 106.7594843 110.99880981 104.01800537 C106.88005684 101.82065438 103.24190525 98.99532223 99.51953125 96.1953125 C98.03209072 95.11942711 96.54274914 94.04616079 95.05078125 92.9765625 C89.54538491 89.00044292 84.08653966 84.96179669 78.625 80.92578125 C73.28095449 76.98115846 67.91042344 73.07562194 62.51953125 69.1953125 C55.51737883 64.15523431 48.56339869 59.05317865 41.625 53.92578125 C36.28095281 49.98115722 30.91033509 46.07574654 25.51953125 42.1953125 C12.83309922 33.05974044 0.2422576 23.79260003 -12.23046875 14.3671875 C-13.94460559 13.0934886 -15.70358371 11.87990253 -17.48046875 10.6953125 C-15.10016589 8.7970584 -12.70467898 6.92789024 -10.29296875 5.0703125 C-9.28266602 4.25820312 -9.28266602 4.25820312 -8.25195312 3.4296875 C-3.22450158 -0.39608051 -3.22450158 -0.39608051 0 0 Z " fill="#CCDEEC" transform="translate(233.48046875,69.3046875)"/>
<path d="M0 0 C14.19 0 28.38 0 43 0 C43 20.13 43 40.26 43 61 C49.93 61 56.86 61 64 61 C69 65 69 65 69.6640625 67.21875 C69.65117187 67.9715625 69.63828125 68.724375 69.625 69.5 C69.64433594 70.62921875 69.64433594 70.62921875 69.6640625 71.78125 C68.65275214 75.16021638 66.95248675 76.12434856 64 78 C61.07833187 78.39234673 58.53522006 78.55791334 55.6171875 78.53344727 C54.78568176 78.54206284 53.95417603 78.55067841 53.09747314 78.55955505 C50.35632969 78.58220783 47.61620907 78.57547808 44.875 78.56640625 C42.96597998 78.57164187 41.05696256 78.57791813 39.14794922 78.58518982 C35.14994114 78.59559253 31.15228902 78.59103398 27.15429688 78.57641602 C22.03265546 78.55922179 16.91213522 78.58273193 11.7906189 78.61790562 C7.84945247 78.63987197 3.9085547 78.6384401 -0.03265381 78.6301403 C-1.92089061 78.62932049 -3.80914707 78.6361896 -5.69732666 78.65091133 C-8.33798049 78.66834502 -10.97661471 78.65382627 -13.6171875 78.63110352 C-14.78468536 78.64864182 -14.78468536 78.64864182 -15.97576904 78.66653442 C-19.95464784 78.5969215 -21.80702302 78.15003719 -24.98486328 75.67930603 C-27 73 -27 73 -27.625 69.5 C-27 66 -27 66 -22 61 C-14.74 61 -7.48 61 0 61 C0 40.87 0 20.74 0 0 Z " fill="#EAB786" transform="translate(352,424)"/>
<path d="M0 0 C1.19074631 0.00607269 1.19074631 0.00607269 2.4055481 0.01226807 C3.6593779 0.00701111 3.6593779 0.00701111 4.9385376 0.00164795 C7.71017689 -0.00717701 10.48156232 -0.00131755 13.25320435 0.00543213 C15.17369638 0.0040857 17.09418809 0.00214535 19.01467896 -0.00036621 C23.0431136 -0.00331851 27.07145967 0.00098357 31.09988403 0.01031494 C36.27200878 0.02170953 41.44392597 0.01515062 46.61604309 0.00317001 C50.5827695 -0.00404573 54.54944644 -0.00176197 58.51617432 0.0034256 C60.42362492 0.00476289 62.33107997 0.00311163 64.23852539 -0.00153351 C66.90109206 -0.00659407 69.5633193 0.00110477 72.2258606 0.01226807 C73.01969147 0.0082196 73.81352234 0.00417114 74.63140869 0 C80.08717606 0.04252885 80.08717606 0.04252885 82.31570435 2.27105713 C82.54275513 4.79302979 82.54275513 4.79302979 82.51101685 7.93511963 C82.50457153 9.056604 82.49812622 10.17808838 82.4914856 11.33355713 C82.46634888 13.09699463 82.46634888 13.09699463 82.44070435 14.89605713 C82.43168091 16.0794165 82.42265747 17.26277588 82.4133606 18.48199463 C82.38973247 21.41188236 82.35678949 24.34137053 82.31570435 27.27105713 C82.97570435 27.60105713 83.63570435 27.93105713 84.31570435 28.27105713 C75.82937251 36.15892345 68.71462569 37.38521529 57.5852356 37.05230713 C56.09883194 37.03735005 54.61238831 37.02597944 53.12593079 37.01800537 C49.25005451 36.98774083 45.37665139 36.90941509 41.5017395 36.82037354 C36.83309788 36.72337028 32.16362007 36.68727979 27.49425507 36.64074707 C20.43302842 36.56367323 13.37720648 36.41023812 6.31570435 36.27105713 C6.64570435 52.11105713 6.97570435 67.95105713 7.31570435 84.27105713 C5.33570435 85.26105713 5.33570435 85.26105713 3.31570435 86.27105713 C3.81070435 85.28105713 3.81070435 85.28105713 4.31570435 84.27105713 C4.43393406 82.72963538 4.49270245 81.18344616 4.52102661 79.63775635 C4.54097183 78.67691132 4.56091705 77.71606628 4.58146667 76.72610474 C4.60653542 75.16667648 4.60653542 75.16667648 4.6321106 73.57574463 C4.65289169 72.51316437 4.67367279 71.45058411 4.69508362 70.35580444 C4.76060695 66.95262275 4.81947708 63.54936224 4.87820435 60.14605713 C4.92138691 57.84266347 4.96500111 55.53927787 5.00906372 53.23590088 C5.11629116 47.58103692 5.21805237 41.9260941 5.31570435 36.27105713 C4.62863403 36.29426025 3.94156372 36.31746338 3.2336731 36.34136963 C2.33261841 36.3594165 1.43156372 36.37746338 0.50320435 36.39605713 C-0.39011597 36.41926025 -1.28343628 36.44246338 -2.2038269 36.46636963 C-4.68429565 36.27105713 -4.68429565 36.27105713 -7.68429565 34.27105713 C-8.05661011 31.13824463 -8.05661011 31.13824463 -8.0475769 27.14605713 C-8.04807541 26.44335693 -8.04857391 25.74065674 -8.04908752 25.0166626 C-8.04674627 23.53046848 -8.03701454 22.04427046 -8.02047729 20.5581665 C-7.99688631 18.27981208 -7.99991499 16.00262759 -8.00656128 13.72418213 C-7.95375041 0.06200114 -7.95375041 0.06200114 0 0 Z " fill="#F0BA85" transform="translate(87.68429565429688,25.72894287109375)"/>
<path d="M0 0 C2.03211542 0.01912067 4.05727355 -0.02004957 6.08886719 -0.06469727 C14.38903125 -0.04415231 20.16704468 0.85619835 26.29980469 6.70678711 C30.39995514 11.47923528 31.67946579 16.12716002 31.56933594 22.30444336 C30.74505434 29.65130109 26.4282648 33.94483431 20.90917969 38.45678711 C20.37808594 38.86928711 19.84699219 39.28178711 19.29980469 39.70678711 C19.80511719 40.56401367 20.31042969 41.42124023 20.83105469 42.30444336 C21.48074219 43.4478418 22.13042969 44.59124023 22.79980469 45.76928711 C23.77433594 47.45731445 23.77433594 47.45731445 24.76855469 49.17944336 C26.44394326 53.03882061 26.70885339 55.54560035 26.29980469 59.70678711 C24.73730469 62.14428711 24.73730469 62.14428711 22.29980469 63.70678711 C18.86230469 64.26928711 18.86230469 64.26928711 15.29980469 63.70678711 C10.59283405 59.8611241 8.28829327 55.30092066 5.67480469 49.95678711 C4.92088743 48.41584137 4.15825557 46.87911968 3.38574219 45.34741211 C3.05622559 44.67226563 2.72670898 43.99711914 2.38720703 43.30151367 C1.30807189 41.37306779 1.30807189 41.37306779 -1.70019531 40.70678711 C-1.65378906 41.9481543 -1.60738281 43.18952148 -1.55957031 44.46850586 C-1.5220411 46.11040881 -1.48564217 47.75233788 -1.45019531 49.39428711 C-1.39992188 50.61921875 -1.39992188 50.61921875 -1.34863281 51.86889648 C-1.28281743 55.93299666 -1.38505405 58.16365648 -3.46582031 61.74975586 C-5.7997297 63.79396671 -6.65399613 64.39128319 -9.70019531 64.33178711 C-10.69019531 64.35112305 -10.69019531 64.35112305 -11.70019531 64.37084961 C-15.03110702 63.26488283 -15.89664699 61.7302947 -17.70019531 58.70678711 C-18.31734956 54.74194498 -18.2843778 50.80681384 -18.26660156 46.80053711 C-18.27589943 45.0643512 -18.27589943 45.0643512 -18.28538513 43.29309082 C-18.29248104 40.84880412 -18.2893134 38.40446907 -18.27661133 35.96020508 C-18.26274386 32.21988064 -18.29682664 28.48205664 -18.33496094 24.74194336 C-18.33591212 22.36564066 -18.33405339 19.98933484 -18.32910156 17.61303711 C-18.34235977 16.49521851 -18.35561798 15.3773999 -18.36927795 14.22570801 C-18.27753147 6.57901249 -18.27753147 6.57901249 -15.58178711 2.50634766 C-10.63402639 -0.58354002 -5.69215446 -0.07166382 0 0 Z " fill="#EAEEF1" transform="translate(287.7001953125,319.293212890625)"/>
<path d="M0 0 C4.52481891 3.01654594 7.07566244 6.68903495 9.9375 11.1875 C10.75902161 12.45188333 11.58063734 13.71620551 12.40234375 14.98046875 C12.81339355 15.61903809 13.22444336 16.25760742 13.64794922 16.91552734 C16.06077773 20.63541355 18.53285309 24.31600335 21 28 C21.0093457 27.29391602 21.01869141 26.58783203 21.02832031 25.86035156 C21.08205659 22.65619455 21.16569757 19.45349243 21.25 16.25 C21.26417969 15.13882812 21.27835937 14.02765625 21.29296875 12.8828125 C21.32519531 11.81289063 21.35742188 10.74296875 21.390625 9.640625 C21.41157227 8.65610352 21.43251953 7.67158203 21.45410156 6.65722656 C22.14630797 3.28782828 23.30461678 2.08351067 26 0 C30.16018502 -0.68075755 32.15474719 -0.56463072 35.68115234 1.79101562 C39.17709303 6.62894407 38.71684888 11.07632231 38.6640625 16.90625 C38.66884613 18.06370728 38.67362976 19.22116455 38.67855835 20.41369629 C38.681957 22.85800538 38.67275725 25.30235995 38.65185547 27.74658203 C38.62509277 31.48703408 38.65160805 35.22448499 38.68359375 38.96484375 C38.68028965 41.34115245 38.67388342 43.71745929 38.6640625 46.09375 C38.67418365 47.2115686 38.68430481 48.32938721 38.69473267 49.4810791 C38.57815078 57.20781351 38.57815078 57.20781351 35.66943359 61.19335938 C33 63 33 63 29.625 63.8125 C21.46497848 61.98352966 17.2643555 52.63059098 12.9921875 46.02734375 C10.74748298 42.61627316 8.38930947 39.31113648 6 36 C5.9906543 36.64026123 5.98130859 37.28052246 5.97167969 37.94018555 C5.91781153 40.85672375 5.83419801 43.77168625 5.75 46.6875 C5.72873047 48.19860352 5.72873047 48.19860352 5.70703125 49.74023438 C5.55936227 54.21460454 5.43952045 57.22510634 3.203125 61.16796875 C0.88948035 63.09190375 -0.03430798 63.68292367 -3 63.625 C-3.99 63.64433594 -3.99 63.64433594 -5 63.6640625 C-8.33091171 62.55809572 -9.19645168 61.02350759 -11 58 C-11.61715425 54.03515787 -11.58418249 50.10002673 -11.56640625 46.09375 C-11.57570412 44.35756409 -11.57570412 44.35756409 -11.58518982 42.58630371 C-11.59228572 40.14201701 -11.58911808 37.69768196 -11.57641602 35.25341797 C-11.56254855 31.51309353 -11.59663133 27.77526953 -11.63476562 24.03515625 C-11.6357168 21.65885355 -11.63385808 19.28254773 -11.62890625 16.90625 C-11.64216446 15.7884314 -11.65542267 14.67061279 -11.66908264 13.5189209 C-11.57630587 5.7863557 -11.57630587 5.7863557 -8.64819336 1.79101562 C-5.37711062 -0.42127007 -3.87338587 -0.72625985 0 0 Z " fill="#EAEEF1" transform="translate(387,320)"/>
<path d="M0 0 C12.82744351 -0.5357169 22.05542107 -0.41521136 32.3125 8.1875 C38.80267699 14.37153656 42.79525763 20.94116931 43.16062927 29.96887207 C43.18179077 31.61004935 43.19742433 33.25130343 43.20874023 34.89257812 C43.22341591 36.23979446 43.22341591 36.23979446 43.23838806 37.61422729 C43.2682973 40.58655327 43.28972027 43.55883418 43.30859375 46.53125 C43.31516558 47.54966476 43.3217374 48.56807953 43.32850838 49.61735535 C43.36108925 55.01279308 43.38553812 60.40821124 43.4050293 65.80371094 C43.42280528 70.25387589 43.45756837 74.70340278 43.50756836 79.15332031 C43.56801111 84.53967511 43.59853858 89.92544077 43.60820198 95.31211853 C43.61671998 97.35650998 43.63544685 99.40088725 43.6649456 101.44508362 C43.84622333 114.72706584 43.42910514 124.47324277 34.4375 135 C33.2309375 135.99 33.2309375 135.99 32 137 C31.2575 137.680625 30.515 138.36125 29.75 139.0625 C19.86436949 146.02737604 10.71802297 145.42914428 -1 145 C-1 144.67 -1 144.34 -1 144 C-0.3709375 143.85304688 0.258125 143.70609375 0.90625 143.5546875 C10.34263374 141.08190019 17.50362965 136.12058507 23 128 C28.29561768 118.23871512 27.60177036 107.64081069 27.56640625 96.87890625 C27.57165137 94.92797043 27.57793108 92.97703715 27.58518982 91.02610779 C27.59555438 86.9520976 27.59108951 82.87843757 27.57641602 78.80444336 C27.55923437 73.61192528 27.58273696 68.42051451 27.61790562 63.22811985 C27.63998092 59.20347413 27.63841371 55.17908924 27.6301403 51.15440178 C27.62932633 49.24124881 27.63608255 47.32807561 27.65091133 45.41497993 C27.7400402 31.83759558 26.84608253 20.04663006 16.95703125 9.68359375 C12.00593662 5.42426883 6.26186101 2.76616593 0 1 C0 0.67 0 0.34 0 0 Z " fill="#61B7FE" transform="translate(469,279)"/>
<path d="M0 0 C0.69275528 -0.00619858 1.38551056 -0.01239716 2.09925842 -0.01878357 C3.56086831 -0.02587032 5.02255912 -0.02272748 6.48413086 -0.01000977 C8.71294805 0.0038459 10.93755373 -0.030205 13.16601562 -0.06835938 C14.58984477 -0.0693108 16.01367914 -0.06745046 17.4375 -0.0625 C18.72648193 -0.0632251 20.01546387 -0.0639502 21.34350586 -0.06469727 C25.64369756 0.72383899 27.11463427 2.17248101 29.78515625 5.56640625 C30.47265625 8.56640625 30.47265625 8.56640625 29.78515625 11.56640625 C27.1155184 14.54089671 25.40069509 16.29284589 21.41772461 16.96728516 C18.73200047 17.0577953 16.09435536 17.003352 13.41015625 16.87890625 C12.01990234 16.84506836 12.01990234 16.84506836 10.6015625 16.81054688 C8.3277329 16.75194302 6.05730739 16.66997555 3.78515625 16.56640625 C3.78515625 19.20640625 3.78515625 21.84640625 3.78515625 24.56640625 C4.4306543 24.54022217 5.07615234 24.51403809 5.74121094 24.48706055 C8.67227742 24.38298186 11.60295534 24.31804815 14.53515625 24.25390625 C15.5509375 24.21201172 16.56671875 24.17011719 17.61328125 24.12695312 C25.12356197 24.00342877 25.12356197 24.00342877 28.484375 26.86328125 C30.28573444 30.60664682 30.00307292 32.62608762 28.78515625 36.56640625 C26.60216864 39.0244503 24.90198128 40.40490307 21.59545898 40.88305664 C19.04298253 40.95997363 16.5242613 40.91534992 13.97265625 40.81640625 C12.64717773 40.78933594 12.64717773 40.78933594 11.29492188 40.76171875 C9.12453082 40.71479138 6.95470106 40.64305356 4.78515625 40.56640625 C4.78515625 42.87640625 4.78515625 45.18640625 4.78515625 47.56640625 C6.08710938 47.50839844 7.3890625 47.45039063 8.73046875 47.390625 C10.45699526 47.34370852 12.18356073 47.29821039 13.91015625 47.25390625 C14.76609375 47.21201172 15.62203125 47.17011719 16.50390625 47.12695312 C20.85938052 47.043194 23.86589407 47.12815784 27.36328125 49.8984375 C29.78515625 52.56640625 29.78515625 52.56640625 30.41015625 55.56640625 C29.6258568 59.33104362 28.54723662 60.89071034 25.78515625 63.56640625 C23.0820478 64.06523087 21.01339287 64.24723679 18.31640625 64.1953125 C17.24042175 64.19893044 17.24042175 64.19893044 16.1427002 64.20262146 C14.62974506 64.20164423 13.11675363 64.18827966 11.60400391 64.16333008 C9.29205518 64.12900867 6.98392867 64.14267415 4.671875 64.16210938 C3.19920253 64.1552106 1.7265399 64.14553792 0.25390625 64.1328125 C-0.43473511 64.13777237 -1.12337646 64.14273224 -1.83288574 64.14784241 C-5.0063699 64.07022305 -6.85922214 63.84246822 -9.39624023 61.87303162 C-11.61647205 59.05700109 -11.72060085 57.67849772 -11.73242188 54.12695312 C-11.74503052 53.03902466 -11.75763916 51.95109619 -11.77062988 50.8302002 C-11.76253296 49.66033569 -11.75443604 48.49047119 -11.74609375 47.28515625 C-11.74992065 46.07952026 -11.75374756 44.87388428 -11.75769043 43.63171387 C-11.76041201 41.0830807 -11.7530338 38.53441971 -11.73632812 35.98583984 C-11.71492415 32.08107323 -11.73612378 28.17814677 -11.76171875 24.2734375 C-11.75907552 21.79817302 -11.75395065 19.32290968 -11.74609375 16.84765625 C-11.75419067 15.67779175 -11.7622876 14.50792725 -11.77062988 13.3026123 C-11.75802124 12.21468384 -11.7454126 11.12675537 -11.73242188 10.00585938 C-11.7292395 9.04973755 -11.72605713 8.09361572 -11.72277832 7.10852051 C-10.42387607 0.60776605 -5.86063871 0.04949554 0 0 Z " fill="#EAEEF1" transform="translate(337.21484375,319.43359375)"/>
<path d="M0 0 C21.45 0 42.9 0 65 0 C59.37414966 5.62585034 59.37414966 5.62585034 55.98828125 8.09375 C55.2398999 8.64232666 54.49151855 9.19090332 53.72045898 9.75610352 C52.92583252 10.33158936 52.13120605 10.9070752 51.3125 11.5 C50.475979 12.11093506 49.63945801 12.72187012 48.77758789 13.35131836 C46.18881152 15.23943916 43.59520648 17.12072963 41 19 C40.22301758 19.56348145 39.44603516 20.12696289 38.64550781 20.70751953 C34.94071242 23.39297652 31.23097077 26.07134769 27.515625 28.7421875 C24.34674552 31.02216707 21.19312367 33.32170959 18.046875 35.6328125 C17.23355713 36.22763428 16.42023926 36.82245605 15.58227539 37.43530273 C14.026263 38.57379809 12.47318684 39.71632129 10.92358398 40.86352539 C10.22048096 41.3764917 9.51737793 41.88945801 8.79296875 42.41796875 C8.1796167 42.86938232 7.56626465 43.3207959 6.93432617 43.78588867 C5 45 5 45 0 47 C0 31.49 0 15.98 0 0 Z " fill="#DE9253" transform="translate(94,62)"/>
<path d="M0 0 C1.31016083 -0.00810448 1.31016083 -0.00810448 2.64678955 -0.01637268 C5.53830698 -0.02889542 8.42883559 -0.01234552 11.3203125 0.00561523 C13.32666069 0.00546033 15.33300918 0.00397275 17.33935547 0.00120544 C21.54603285 -0.00018014 25.75236995 0.01240621 29.95898438 0.03515625 C35.35640628 0.06354124 40.75326256 0.06080563 46.15072632 0.04806614 C50.29423876 0.04111756 54.43762002 0.04888886 58.58111572 0.06132317 C60.57146705 0.06584565 62.56183243 0.06616753 64.55218506 0.06225777 C67.33195965 0.0593536 70.11094946 0.07581434 72.890625 0.09765625 C73.7166925 0.0931546 74.54276001 0.08865295 75.39385986 0.08401489 C81.02367888 0.15766971 81.02367888 0.15766971 83.15084839 1.89337063 C84.83110493 3.98104616 84.90943891 5.28007898 84.9453125 7.93920898 C84.97625 8.70104492 85.0071875 9.46288086 85.0390625 10.24780273 C84.13143267 13.69321335 82.42325413 14.6148608 79.4453125 16.50170898 C76.52364437 16.89405572 73.98053256 17.05962233 71.0625 17.03515625 C70.23099426 17.04377182 69.39948853 17.05238739 68.54278564 17.06126404 C65.80164219 17.08391681 63.06152157 17.07718707 60.3203125 17.06811523 C58.41129248 17.07335086 56.50227506 17.07962711 54.59326172 17.0868988 C50.59525364 17.09730151 46.59760152 17.09274297 42.59960938 17.078125 C37.47796796 17.06093077 32.35744772 17.08444092 27.2359314 17.1196146 C23.29476497 17.14158096 19.3538672 17.14014909 15.41265869 17.13184929 C13.52442189 17.13102948 11.63616543 17.13789858 9.74798584 17.15262032 C7.10733201 17.170054 4.46869779 17.15553525 1.828125 17.1328125 C1.04979309 17.1445047 0.27146118 17.1561969 -0.53045654 17.16824341 C-4.50835636 17.09864761 -6.36545622 16.64820287 -9.54736328 14.18492126 C-11.5546875 11.50170898 -11.5546875 11.50170898 -12.0546875 7.93920898 C-10.92638263 0.18211299 -7.1114898 -0.08323008 0 0 Z " fill="#305B74" transform="translate(336.5546875,485.498291015625)"/>
<path d="M0 0 C7.08411622 -0.05058526 14.16818612 -0.08568494 21.25244141 -0.10986328 C23.66391744 -0.11993954 26.07538122 -0.13360081 28.48681641 -0.15087891 C31.94697085 -0.1750559 35.4069642 -0.18646669 38.8671875 -0.1953125 C39.95055389 -0.20563507 41.03392029 -0.21595764 42.15011597 -0.22659302 C43.1510025 -0.22674408 44.15188904 -0.22689514 45.18310547 -0.22705078 C46.06690887 -0.231492 46.95071228 -0.23593323 47.86129761 -0.24050903 C50 0 50 0 52 2 C52.22705078 4.52197266 52.22705078 4.52197266 52.1953125 7.6640625 C52.18886719 8.78554688 52.18242187 9.90703125 52.17578125 11.0625 C52.15902344 12.238125 52.14226562 13.41375 52.125 14.625 C52.11597656 15.80835938 52.10695313 16.99171875 52.09765625 18.2109375 C52.07402812 21.14082523 52.04108514 24.0703134 52 27 C50.98800537 27.02187378 50.98800537 27.02187378 49.95556641 27.04418945 C46.84485418 27.11949583 43.73512031 27.21587844 40.625 27.3125 C39.56410156 27.33505859 38.50320313 27.35761719 37.41015625 27.38085938 C25.98129112 27.76649593 15.50770082 30.15060606 7.36328125 38.72265625 C6.20898996 40.12169699 5.09921327 41.55728258 4 43 C3.67 43 3.34 43 3 43 C2.98018066 41.8039917 2.96036133 40.6079834 2.93994141 39.37573242 C2.86391728 34.94192306 2.77519503 30.50844326 2.68261719 26.07495117 C2.64431423 24.15542096 2.60946367 22.23581865 2.578125 20.31616211 C2.53250298 17.5581687 2.4745042 14.80067223 2.4140625 12.04296875 C2.39673569 10.75376778 2.39673569 10.75376778 2.37905884 9.43852234 C2.35918915 8.63791885 2.33931946 7.83731537 2.31884766 7.01245117 C2.30552399 6.3085173 2.29220032 5.60458344 2.2784729 4.87931824 C2.08755815 2.66902536 2.08755815 2.66902536 0 0 Z " fill="#DE9252" transform="translate(236,252)"/>
<path d="M0 0 C1.27006897 -0.00717545 1.27006897 -0.00717545 2.5657959 -0.01449585 C4.3510118 -0.01788925 6.13629032 -0.00872591 7.92138672 0.01220703 C10.64822423 0.03898369 13.3709462 0.01244352 16.09765625 -0.01953125 C17.83594655 -0.01622705 19.5742343 -0.00982059 21.3125 0 C22.52987854 -0.01518173 22.52987854 -0.01518173 23.77185059 -0.03067017 C28.03574183 0.05725728 29.69291352 0.30167685 33.16601562 3.01806641 C35.15625 5.6640625 35.15625 5.6640625 35.84375 8.6640625 C35.07306553 12.0270493 33.90856492 13.68793468 31.14697266 15.77294922 C28.61867507 16.90469881 26.68796368 16.87361918 23.9296875 16.796875 C23.03427246 16.7777002 22.13885742 16.75852539 21.21630859 16.73876953 C20.53648926 16.71411621 19.85666992 16.68946289 19.15625 16.6640625 C19.17196045 17.87989014 19.1876709 19.09571777 19.20385742 20.34838867 C19.25823801 24.86768953 19.29262972 29.38696156 19.32104492 33.90649414 C19.33611301 35.86097073 19.35657124 37.81541362 19.38256836 39.76977539 C19.41903865 42.58227873 19.43599622 45.39433424 19.44921875 48.20703125 C19.46470261 49.07804977 19.48018646 49.9490683 19.49613953 50.84648132 C19.49745388 55.60562386 19.29207538 58.81635091 16.15625 62.6640625 C13.06451248 64.20993126 10.56195448 63.95765771 7.15625 63.6640625 C4.95410156 62.25683594 4.95410156 62.25683594 3.15625 59.6640625 C2.60200039 56.39471882 2.69139615 53.17475276 2.765625 49.8671875 C2.77128479 48.91841736 2.77694458 47.96964722 2.78277588 46.99212646 C2.80514391 43.96558914 2.85534142 40.94024121 2.90625 37.9140625 C2.92631443 35.8606942 2.9445653 33.80730731 2.9609375 31.75390625 C3.00501019 26.72350094 3.07404109 21.69398329 3.15625 16.6640625 C2.01953857 16.69125366 2.01953857 16.69125366 0.85986328 16.71899414 C-0.13287598 16.73309326 -1.12561523 16.74719238 -2.1484375 16.76171875 C-3.62546143 16.78890991 -3.62546143 16.78890991 -5.13232422 16.81665039 C-7.84375 16.6640625 -7.84375 16.6640625 -10.96875 15.1015625 C-13.4901241 11.82377617 -13.98869251 9.79492417 -13.84375 5.6640625 C-9.82614476 0.15440457 -6.34121765 -0.07908031 0 0 Z " fill="#E9EEF1" transform="translate(442.84375,319.3359375)"/>
<path d="M0 0 C2.79705435 -0.08001586 5.59323236 -0.13055659 8.39111328 -0.171875 C9.76481079 -0.2042627 9.76481079 -0.2042627 11.16625977 -0.23730469 C16.08450941 -0.26082616 19.57926821 -0.22573714 23.51611328 3.078125 C25.8136725 6.52446382 25.75255304 7.78880891 25.71142578 11.83984375 C25.70643066 12.84748779 25.70143555 13.85513184 25.69628906 14.89331055 C25.67808105 16.17117432 25.65987305 17.44903809 25.64111328 18.765625 C25.59986328 22.82875 25.55861328 26.891875 25.51611328 31.078125 C11.32611328 31.078125 -2.86388672 31.078125 -17.48388672 31.078125 C-17.56638672 26.870625 -17.64888672 22.663125 -17.73388672 18.328125 C-17.77030273 17.0071582 -17.80671875 15.68619141 -17.84423828 14.32519531 C-17.85422852 13.27944336 -17.86421875 12.23369141 -17.87451172 11.15625 C-17.89545898 10.08793945 -17.91640625 9.01962891 -17.93798828 7.91894531 C-17.37450329 4.39383167 -16.24923532 3.25729285 -13.48388672 1.078125 C-9.17854858 -0.19632044 -4.46219327 0.14034813 0 0 Z " fill="#DD9354" transform="translate(369.48388671875,247.921875)"/>
<path d="M0 0 C6.93 0 13.86 0 21 0 C21 20.13 21 40.26 21 61 C14.07 61 7.14 61 0 61 C0 40.87 0 20.74 0 0 Z " fill="#DE9252" transform="translate(373,424)"/>
<path d="M0 0 C0 0.33 0 0.66 0 1 C-5.94 1.33 -11.88 1.66 -18 2 C-17.01 2.99 -16.02 3.98 -15 5 C-14.65942383 7.72729492 -14.65942383 7.72729492 -14.70703125 10.98046875 C-14.71669922 12.14384766 -14.72636719 13.30722656 -14.73632812 14.50585938 C-14.76146484 15.72080078 -14.78660156 16.93574219 -14.8125 18.1875 C-14.83280273 20.02731445 -14.83280273 20.02731445 -14.85351562 21.90429688 C-14.88890964 24.9363845 -14.94271705 27.96824691 -15 31 C-21.93 31 -28.86 31 -36 31 C-36.10776358 26.74932547 -36.18721602 22.50137241 -36.25 18.25 C-36.28351563 17.0434375 -36.31703125 15.836875 -36.3515625 14.59375 C-36.36445313 13.43359375 -36.37734375 12.2734375 -36.390625 11.078125 C-36.41157227 10.00981445 -36.43251953 8.94150391 -36.45410156 7.84082031 C-35.89061657 4.31570667 -34.7653486 3.17916785 -32 1 C-22.34245274 -1.85878059 -10.02823909 -0.09077225 0 0 Z " fill="#F0BA85" transform="translate(388,248)"/>
<path d="M0 0 C0.66 0 1.32 0 2 0 C2.97317656 1.17978942 3.90300242 2.39545137 4.8125 3.625 C9.42665889 9.14235595 15.4418712 11.39647218 22 14 C22 14.33 22 14.66 22 15 C14.74 15 7.48 15 0 15 C0 10.05 0 5.1 0 0 Z " fill="#DD9456" transform="translate(239,409)"/>
<path d="M0 0 C2.45862401 -0.05383848 4.9160755 -0.09359038 7.375 -0.125 C8.42300781 -0.15013672 8.42300781 -0.15013672 9.4921875 -0.17578125 C11.32897486 -0.19344267 13.16601963 -0.10303261 15 0 C15.66 0.66 16.32 1.32 17 2 C16.75 4.5625 16.75 4.5625 16 7 C12.99686252 8.50156874 10.20932478 8.09281204 6.875 8.0625 C5.59367187 8.05347656 4.31234375 8.04445313 2.9921875 8.03515625 C1.51105469 8.01775391 1.51105469 8.01775391 0 8 C0 5.36 0 2.72 0 0 Z " fill="#8FCBFD" transform="translate(286,336)"/>
<path d="M0 0 C-0.28875 0.515625 -0.5775 1.03125 -0.875 1.5625 C-2.28780027 4.62356725 -3.1248517 7.74944918 -4 11 C-4.33 11 -4.66 11 -5 11 C-5.36637589 4.64948454 -5.36637589 4.64948454 -3.625 1.5625 C-2 0 -2 0 0 0 Z " fill="#547F9D" transform="translate(330,486)"/>
</svg>
