<?xml version="1.0" encoding="UTF-8"?>
<svg version="1.1" xmlns="http://www.w3.org/2000/svg" width="512" height="512">
<path d="M0 0 C7.91262283 5.60158599 14.58856978 13.03248366 16.64453125 22.6796875 C19.07550234 44.7712038 8.66181108 59.81901933 -4.04833984 76.84082031 C-7.67373712 81.70400487 -11.13371946 86.66293057 -14.54296875 91.6796875 C-19.47782963 98.94029216 -24.45979392 106.16561819 -29.48046875 113.3671875 C-34.00105259 119.85328897 -38.51081863 126.34588098 -42.98046875 132.8671875 C-44.28971093 134.77079588 -45.59977791 136.67383371 -46.91015625 138.57666016 C-47.95407042 140.09562581 -48.99541756 141.61635676 -50.03515625 143.13818359 C-63.21254088 162.4043543 -63.21254088 162.4043543 -71.35546875 170.6796875 C-71.8865625 171.28296875 -72.41765625 171.88625 -72.96484375 172.5078125 C-98.86731087 200.97488032 -149.88700343 199.15053137 -185.48046875 201.2421875 C-186.34750947 201.29483812 -187.21455018 201.34748874 -188.10786486 201.40173483 C-231.60027068 203.98520928 -268.48538452 201.65674497 -302.29976177 171.84299016 C-313.72086455 161.59763683 -324.29285591 150.6496914 -334.54296875 139.2421875 C-335.1406648 138.57876296 -335.73836084 137.91533841 -336.35416889 137.23181009 C-351.83328469 120.01509561 -366.47591128 102.20961694 -380.35546875 83.6796875 C-378.57594029 79.82752577 -376.1634028 77.30719408 -373.04296875 74.4921875 C-372.51243896 74.01241455 -371.98190918 73.5326416 -371.43530273 73.03833008 C-351.86477137 55.69934985 -330.90435997 49.0343447 -305.25634766 49.16210938 C-303.39830989 49.15667455 -301.54027644 49.14954434 -299.68225098 49.14086914 C-294.68670881 49.12280207 -289.69150104 49.1296318 -284.69595385 49.14238548 C-279.44494836 49.152591 -274.19396939 49.14309986 -268.94296265 49.13684082 C-260.13558871 49.12959009 -251.32834952 49.13908825 -242.52099609 49.15820312 C-232.35742965 49.18000749 -222.19418379 49.17288422 -212.03062499 49.1508975 C-203.27435212 49.13271835 -194.51817546 49.13019626 -185.76188982 49.14065218 C-180.54485657 49.14686806 -175.32797387 49.14777453 -170.11095047 49.13450623 C-165.2105234 49.1229102 -160.3105085 49.13104178 -155.41012573 49.15408325 C-153.61793068 49.15934858 -151.82570062 49.15789406 -150.03351974 49.14903259 C-140.85328938 49.10784148 -132.61913719 49.11920086 -124.35546875 53.6796875 C-123.00195312 54.40091797 -123.00195312 54.40091797 -121.62109375 55.13671875 C-112.42611984 61.32016051 -105.74467475 69.6157863 -103.35546875 80.6796875 C-102.56124025 93.81700805 -102.97164074 105.20460462 -111.6640625 115.8359375 C-120.96117216 125.97043118 -130.85887178 130.08637631 -144.59391022 130.79520798 C-149.99039537 130.96273702 -155.38758646 130.97941738 -160.78631973 130.98464775 C-163.85440792 130.98834589 -166.92218276 131.0051591 -169.99020386 131.02540588 C-178.70337127 131.08053659 -187.41658035 131.11166403 -196.12988281 131.13598633 C-201.48005579 131.15181347 -206.82999675 131.18195876 -212.1800499 131.22075081 C-214.21586533 131.23242054 -216.25172207 131.23833133 -218.28757095 131.23843193 C-221.11920966 131.23862289 -223.95019981 131.25680127 -226.78173828 131.27905273 C-227.62531387 131.27447556 -228.46888947 131.26989838 -229.33802795 131.2651825 C-231.89765567 131.26191317 -231.89765567 131.26191317 -235.35546875 131.6796875 C-237.66879361 135.14967479 -237.69504438 136.60477998 -237.35546875 140.6796875 C-235.73521567 143.75543535 -235.73521567 143.75543535 -233.46344566 144.35883045 C-230.0040559 144.88538726 -226.53605989 144.82696253 -223.04541016 144.82495117 C-222.20899994 144.82830978 -221.37258972 144.8316684 -220.51083374 144.83512878 C-217.74288446 144.84463258 -214.97499584 144.84658231 -212.20703125 144.84765625 C-210.27330501 144.85087171 -208.33957901 144.854236 -206.40585327 144.85774231 C-202.34559568 144.86373391 -198.28535936 144.86558243 -194.22509766 144.86499023 C-189.05646951 144.86488918 -183.88798049 144.87848243 -178.71938515 144.89576244 C-174.71958814 144.90696372 -170.71982374 144.90890688 -166.72001266 144.90838051 C-164.81689352 144.90955068 -162.91377325 144.91391754 -161.01066971 144.92171288 C-140.28634761 144.99858421 -120.9568263 143.79567121 -104.83056641 129.14794922 C-93.24347218 117.61455222 -89.07498345 103.39429967 -89.03637695 87.53417969 C-89.1774762 77.4296532 -91.3069535 68.51776183 -97.5 60.36328125 C-98.35546875 58.6796875 -98.35546875 58.6796875 -98.19871521 56.88949585 C-97.00506165 53.76141204 -95.07600161 52.01074464 -92.71899414 49.63916016 C-92.23747894 49.15078171 -91.75596375 48.66240326 -91.25985718 48.15922546 C-89.66523197 46.54629907 -88.05976058 44.94470709 -86.453125 43.34375 C-85.33471168 42.22077275 -84.2166702 41.09742507 -83.09898376 39.97372437 C-80.75093441 37.61673457 -78.39728024 35.26551919 -76.03979492 32.91796875 C-73.03895084 29.92854818 -70.05413555 26.92369414 -67.07369328 23.91394997 C-64.76515286 21.58692693 -62.44722158 19.26943376 -60.12658501 16.95447922 C-59.02365987 15.85170619 -57.92378148 14.7458763 -56.82719612 13.63679886 C-40.93787272 -2.40775255 -21.80635905 -12.22313326 0 0 Z " fill="#000000" transform="translate(479.35546875,222.3203125)"/>
<path d="M0 0 C23.66234029 18.59998072 39.34054315 44.63448351 43.28955078 74.69042969 C43.60743422 79.547814 43.67135421 84.38600194 43.66455078 89.25292969 C43.66400696 89.9120636 43.66346313 90.57119751 43.66290283 91.25030518 C43.62136172 102.23144782 42.67449866 112.24706689 39.28955078 122.69042969 C39.07524414 123.37202148 38.8609375 124.05361328 38.64013672 124.75585938 C34.05753137 138.98394847 27.10241502 151.37655371 17.28955078 162.69042969 C16.62568359 163.49867188 15.96181641 164.30691406 15.27783203 165.13964844 C1.12033168 181.80938545 -17.92303446 192.56747983 -38.71044922 198.69042969 C-39.81646484 199.03074219 -40.92248047 199.37105469 -42.06201172 199.72167969 C-60.85696274 204.47543779 -83.27986116 203.66423154 -101.71044922 197.69042969 C-102.39204102 197.47612305 -103.07363281 197.26181641 -103.77587891 197.04101562 C-118.003968 192.45841028 -130.39657324 185.50329393 -141.71044922 175.69042969 C-142.51869141 175.0265625 -143.32693359 174.36269531 -144.15966797 173.67871094 C-164.35155452 156.52987166 -177.51933446 130.93205143 -180.71044922 104.69042969 C-182.92401312 70.35410349 -175.59310728 40.59135303 -152.85864258 14.23852539 C-114.27436664 -29.19634523 -45.96552713 -35.19256173 0 0 Z M-74.64794922 11.94042969 C-76.59688042 15.15043403 -76.83450257 18.32295994 -76.80810547 22.01855469 C-76.80327148 23.21738281 -76.80327148 23.21738281 -76.79833984 24.44042969 C-76.78996094 25.26542969 -76.78158203 26.09042969 -76.77294922 26.94042969 C-76.7684375 27.78089844 -76.76392578 28.62136719 -76.75927734 29.48730469 C-76.74752883 31.5550437 -76.72959444 33.62274593 -76.71044922 35.69042969 C-77.78294922 35.97015625 -78.85544922 36.24988281 -79.96044922 36.53808594 C-88.53368467 39.17256975 -92.76888974 44.63285915 -97.36279297 52.10449219 C-101.00595656 59.09514233 -100.77663862 67.9889198 -99.06201172 75.54980469 C-95.51155218 85.32115487 -89.37023999 91.15386721 -80.04248047 95.51855469 C-75.35456897 97.16729261 -70.71205142 97.66213661 -65.79248047 98.20996094 C-61.63960439 98.85736747 -59.74590905 99.81904876 -56.71044922 102.69042969 C-52.82384645 108.13542874 -52.91977265 113.20688183 -53.71044922 119.69042969 C-55.84391299 124.19440877 -58.14979354 126.67525625 -62.71044922 128.69042969 C-68.4626575 130.23910115 -73.52175091 129.58689344 -78.71044922 126.69042969 C-82.21134469 123.09370679 -83.5058939 119.81335184 -84.77294922 115.00292969 C-85.91904125 109.95075653 -85.91904125 109.95075653 -89.71044922 106.69042969 C-93.14010283 106.25260157 -95.04285123 106.32149396 -98.08544922 108.00292969 C-100.75572868 112.41916111 -100.48047076 116.67865153 -99.71044922 121.69042969 C-96.64875542 130.46142954 -91.61978136 136.82151107 -83.77294922 141.70996094 C-81.43923137 142.8193609 -79.25331831 143.27986228 -76.71044922 143.69042969 C-76.73365234 144.93179688 -76.75685547 146.17316406 -76.78076172 147.45214844 C-76.79952653 149.09406949 -76.81772597 150.73599707 -76.83544922 152.37792969 C-76.85220703 153.19455078 -76.86896484 154.01117188 -76.88623047 154.85253906 C-76.9216875 159.23148301 -76.86592043 162.74878128 -74.71044922 166.69042969 C-72.71487809 169.11863188 -72.71487809 169.11863188 -68.77294922 169.00292969 C-66.14869471 168.93161842 -65.00660108 168.88149541 -62.77294922 167.44042969 C-60.82401801 164.23042535 -60.58639586 161.05789944 -60.61279297 157.36230469 C-60.61601562 156.56308594 -60.61923828 155.76386719 -60.62255859 154.94042969 C-60.6309375 154.11542969 -60.63931641 153.29042969 -60.64794922 152.44042969 C-60.65246094 151.59996094 -60.65697266 150.75949219 -60.66162109 149.89355469 C-60.67336961 147.82581567 -60.691304 145.75811345 -60.71044922 143.69042969 C-59.61023438 143.52220703 -59.61023438 143.52220703 -58.48779297 143.35058594 C-51.42632747 141.67212227 -45.91790723 136.63172876 -41.92919922 130.73730469 C-36.96634297 122.40225124 -36.1204244 113.31104151 -38.40185547 103.81152344 C-41.63446183 94.95228844 -47.25898755 88.83848165 -55.71044922 84.69042969 C-59.88579563 83.10173332 -63.78246912 82.33202737 -68.21044922 81.81542969 C-73.51159724 81.03655942 -76.76135035 80.32775759 -80.71044922 76.69042969 C-84.60202137 71.25160596 -84.50060745 66.16972715 -83.71044922 59.69042969 C-81.52401223 55.07461826 -79.21445117 52.96178884 -74.71044922 50.69042969 C-69.16236318 49.861577 -64.23904039 49.96636018 -59.14794922 52.37792969 C-55.05161884 56.26419184 -53.72428942 59.25020083 -52.83544922 64.75292969 C-52.18972125 68.29914067 -51.84301406 69.53208835 -49.46044922 72.37792969 C-45.9858848 74.03624452 -44.34286573 73.87491333 -40.71044922 72.69042969 C-38.47161194 71.00733216 -37.79077743 70.12535992 -37.27685547 67.34277344 C-37.26463185 58.84735557 -39.14949177 52.49528075 -43.89794922 45.44042969 C-48.80849524 40.63900691 -53.80217388 36.7242385 -60.71044922 35.69042969 C-60.68724609 34.4490625 -60.66404297 33.20769531 -60.64013672 31.92871094 C-60.62137191 30.28678989 -60.60317247 28.64486231 -60.58544922 27.00292969 C-60.56869141 26.18630859 -60.55193359 25.3696875 -60.53466797 24.52832031 C-60.49921093 20.14937636 -60.55497801 16.63207809 -62.71044922 12.69042969 C-64.70602034 10.26222749 -64.70602034 10.26222749 -68.64794922 10.37792969 C-71.27220372 10.44924095 -72.41429736 10.49936397 -74.64794922 11.94042969 Z " fill="#000000" transform="translate(324.71044921875,38.3095703125)"/>
<path d="M0 0 C1.74892521 1.15630627 1.74892521 1.15630627 3.51197815 2.77787781 C4.20892351 3.41842794 4.90586887 4.05897808 5.62393379 4.71893883 C10.53855404 9.43705206 15.3707876 14.23227759 20.18334961 19.05395508 C21.39450809 20.26375634 22.60587872 21.47334524 23.81744385 22.68273926 C27.08579443 25.94655656 30.35100504 29.21349792 33.6154983 32.4811728 C37.03680614 35.90502205 40.46056402 39.32641995 43.88392639 42.74821472 C49.62436761 48.48684092 55.36270626 54.22756324 61.09985352 59.96948242 C67.73732555 66.61241136 74.37841335 73.25170921 81.02136034 79.88916284 C86.72948671 85.5927576 92.43567012 91.29829071 98.1402207 97.00546187 C101.54567659 100.41247827 104.95180819 103.81881173 108.35969353 107.22339821 C111.5573423 110.41816707 114.75255162 113.61535549 117.94586182 116.81446075 C119.12012908 117.9900543 120.2952556 119.16479025 121.47128487 120.33862114 C123.07118043 121.93580046 124.66798983 123.53600144 126.26402283 125.13703918 C127.15975478 126.03314816 128.05548674 126.92925714 128.97836208 127.85252094 C131.95663752 131.01618545 132.53741302 133.42500099 132.46281433 137.81163025 C131.89400971 140.50116415 130.95207234 141.62526077 129.0949707 143.63891602 C128.45653229 144.33373077 127.81809387 145.02854553 127.16030884 145.74441528 C123.15018475 149.93139746 119.08457869 154.05748336 114.98046875 158.15234375 C114.03104843 159.10243935 113.08177646 160.0526832 112.13264465 161.00306702 C110.16011503 162.97705877 108.18581861 164.94926086 106.21020508 166.92016602 C103.67702339 169.447604 101.14842172 171.9795695 98.62108898 174.51285458 C96.66955192 176.46799755 94.71564907 178.42076218 92.76101112 180.37280464 C91.37368135 181.75914415 89.98836335 183.14749591 88.60307312 184.53587341 C87.34585197 185.78836632 87.34585197 185.78836632 86.06323242 187.06616211 C84.95572884 188.17247231 84.95572884 188.17247231 83.82585144 189.3011322 C80.84072063 192.07865424 78.26768774 192.53892436 74.18043613 192.45486736 C71.5387743 191.90378231 70.46732777 191.04259286 68.48802185 189.22212219 C67.79107649 188.58157206 67.09413113 187.94102192 66.37606621 187.28106117 C61.46144596 182.56294794 56.6292124 177.76772241 51.81665039 172.94604492 C50.60549191 171.73624366 49.39412128 170.52665476 48.18255615 169.31726074 C44.91420557 166.05344344 41.64899496 162.78650208 38.3845017 159.5188272 C34.96319386 156.09497795 31.53943598 152.67358005 28.11607361 149.25178528 C22.37563239 143.51315908 16.63729374 137.77243676 10.90014648 132.03051758 C4.26267445 125.38758864 -2.37841335 118.74829079 -9.02136034 112.11083716 C-14.72948671 106.4072424 -20.43567012 100.70170929 -26.1402207 94.99453813 C-29.54567659 91.58752173 -32.95180819 88.18118827 -36.35969353 84.77660179 C-39.5573423 81.58183293 -42.75255162 78.38464451 -45.94586182 75.18553925 C-47.12012908 74.0099457 -48.2952556 72.83520975 -49.47128487 71.66137886 C-51.07118043 70.06419954 -52.66798983 68.46399856 -54.26402283 66.86296082 C-55.15975478 65.96685184 -56.05548674 65.07074286 -56.97836208 64.14747906 C-59.95663752 60.98381455 -60.53741302 58.57499901 -60.46281433 54.18836975 C-59.89400971 51.49883585 -58.95207234 50.37473923 -57.0949707 48.36108398 C-56.13731308 47.31886185 -56.13731308 47.31886185 -55.16030884 46.25558472 C-51.15018475 42.06860254 -47.08457869 37.94251664 -42.98046875 33.84765625 C-42.03104843 32.89756065 -41.08177646 31.9473168 -40.13264465 30.99693298 C-38.16011503 29.02294123 -36.18581861 27.05073914 -34.21020508 25.07983398 C-31.67702339 22.552396 -29.14842172 20.0204305 -26.62108898 17.48714542 C-24.66955192 15.53200245 -22.71564907 13.57923782 -20.76101112 11.62719536 C-19.37368135 10.24085585 -17.98836335 8.85250409 -16.60307312 7.46412659 C-15.34585197 6.21163368 -15.34585197 6.21163368 -14.06323242 4.93383789 C-13.3248967 4.19629776 -12.58656097 3.45875763 -11.82585144 2.6988678 C-8.33750809 -0.54686954 -4.58170812 -0.95580396 0 0 Z " fill="#000000" transform="translate(76,304)"/>
</svg>
